<svg xmlns="http://www.w3.org/2000/svg" xmlns:xlink="http://www.w3.org/1999/xlink" width="118" height="118" viewBox="0 0 118 118">
  <defs>
    <clipPath id="clip-path">
      <rect id="Rectangle_46" data-name="Rectangle 46" width="118" height="118" transform="translate(-0.458 -0.458)" fill="#ff6921"/>
    </clipPath>
  </defs>
  <g id="Mask_Group_2" data-name="Mask Group 2" transform="translate(0.458 0.458)" clip-path="url(#clip-path)">
    <g id="time" transform="translate(7.81)">
      <path id="Path_30" data-name="Path 30" d="M98.847,135.7c-5.288,0-9.756-2.681-9.756-5.854h-3.9c0,5,5.007,8.991,11.707,9.65v5.959h3.9v-5.959c6.7-.659,11.707-4.655,11.707-9.65,0-5.463-6-9.756-13.659-9.756-5.288,0-9.756-2.681-9.756-5.854s4.468-5.854,9.756-5.854,9.756,2.681,9.756,5.854h3.9c0-5-5.007-8.991-11.707-9.65V98.624H96.9v5.959c-6.7.659-11.707,4.655-11.707,9.65,0,5.463,6,9.756,13.659,9.756,5.288,0,9.756,2.681,9.756,5.854S104.135,135.7,98.847,135.7Zm0,0" transform="translate(-48.115 -55.697)" fill="#ff6921"/>
      <path id="Path_31" data-name="Path 31" d="M76.062,143.132a31.22,31.22,0,1,0-31.22-31.22A31.219,31.219,0,0,0,76.062,143.132Zm0-58.537a27.317,27.317,0,1,1-27.317,27.317A27.317,27.317,0,0,1,76.062,84.595Zm0,0" transform="translate(-25.329 -45.57)" fill="#ff6921"/>
      <path id="Path_32" data-name="Path 32" d="M52.7,15.658V11.707h7.8A5.854,5.854,0,1,0,60.5,0H40.988a5.854,5.854,0,0,0,0,11.707h7.8V25.366h3.9V19.561A46.655,46.655,0,0,1,82.431,31.9l-4.1,4.1,2.759,2.759,4.1-4.1A46.649,46.649,0,0,1,97.525,64.39H91.72v3.9h5.805A46.649,46.649,0,0,1,85.19,98.027l-4.1-4.1L78.333,96.69l4.1,4.1A46.655,46.655,0,0,1,52.7,113.123v-5.805h-3.9v5.805a46.652,46.652,0,0,1-29.734-12.336l4.1-4.1L20.4,93.93l-4.1,4.1A46.649,46.649,0,0,1,3.964,68.293h5.8v-3.9h-5.8A46.339,46.339,0,0,1,19.525,31.456V42.927h3.9V25.366H5.866v3.9H16.121A50.736,50.736,0,1,0,52.7,15.658Zm-13.659-9.8A1.951,1.951,0,0,1,40.988,3.9H60.5a1.951,1.951,0,1,1,0,3.9H40.988a1.951,1.951,0,0,1-1.951-1.951Zm0,0" transform="translate(-0.012 0)" fill="#ff6921"/>
    </g>
  </g>
</svg>
