<svg xmlns="http://www.w3.org/2000/svg" width="18.105" height="18.815" viewBox="0 0 18.105 18.815">
  <path id="Path_195" data-name="Path 195" d="M14.352-37.14a3.006,3.006,0,0,0-3-2.1c-2.84,0-4.779,2.622-4.779,5.543,0,2.43,1.475,4.4,3.823,4.4a4.123,4.123,0,0,0,3.413-1.939,1.9,1.9,0,0,0,1.993,1.83c2.157,0,4.451-2.649,4.451-6.445,0-4.888-3.987-8.083-8.629-8.083a9.349,9.349,0,0,0-9.476,9.421c0,5.543,4.069,9.394,9.722,9.394a14.322,14.322,0,0,0,6.144-1.311l-.41-1.256a13.127,13.127,0,0,1-5.707,1.256c-6.281,0-8.356-4.615-8.356-8.056a8.066,8.066,0,0,1,8.11-8.138c3.987,0,7.291,2.676,7.291,6.8,0,3.25-1.8,5.216-3.086,5.216-.9,0-.983-.874-1.01-1.256v-.218c.055-.546.519-3.577,1.283-6.8h-1.42Zm-3.659,6.363c-1.283,0-2.54-1.01-2.54-2.977,0-2.048,1.42-4.014,3.332-4.014a2.324,2.324,0,0,1,2.348,2.649C13.833-32.908,12.631-30.778,10.692-30.778Z" transform="translate(-2.145 43.94)" fill="#fff"/>
</svg>
