<svg xmlns="http://www.w3.org/2000/svg" xmlns:xlink="http://www.w3.org/1999/xlink" width="117" height="118" viewBox="0 0 117 118">
  <defs>
    <clipPath id="clip-path">
      <rect id="Rectangle_47" data-name="Rectangle 47" width="117" height="118" transform="translate(0.085 -0.458)" fill="#ff6921"/>
    </clipPath>
  </defs>
  <g id="Mask_Group_3" data-name="Mask Group 3" transform="translate(-0.085 0.458)" clip-path="url(#clip-path)">
    <g id="pay" transform="translate(0)">
      <path id="Path_33" data-name="Path 33" d="M118.644,185.648l-4.97-2.978a9.779,9.779,0,0,0-5.014-1.385h-7.48a17.651,17.651,0,0,0-4.536.585l-22.536,6.05a7.859,7.859,0,0,0-5.306,4.921L48.978,182.117a7.767,7.767,0,0,0-5.305-.877,7.323,7.323,0,0,0-1.973.648,7.672,7.672,0,0,0-3.352,3.122,7.819,7.819,0,0,0-1.032,3.883,7.733,7.733,0,0,0,3.857,6.75L76.7,216.9a9.756,9.756,0,0,0,5.137,1.462h27.5a9.728,9.728,0,0,0,3.586-.683l5.726-2.261v2.944h19.514V179.333H118.644Zm-7.16,28.4a5.871,5.871,0,0,1-2.147.41h-27.5a5.871,5.871,0,0,1-3.109-.894L43.152,192.283a3.882,3.882,0,0,1-1.94-3.388,3.964,3.964,0,0,1,.523-1.951,3.836,3.836,0,0,1,1.676-1.547,3.677,3.677,0,0,1,.976-.316,4.108,4.108,0,0,1,.748-.07,3.826,3.826,0,0,1,1.912.507l21.5,11.615c.025.119.025.236.056.355a7.825,7.825,0,0,0,7.545,5.776,19.178,19.178,0,0,0,3.216-.574l20.274-5.425-1.006-3.77-20.209,5.4c-.89.2-2.038.439-2.275.459a3.9,3.9,0,0,1-3.772-2.875,3.564,3.564,0,0,1-.113-.722s-.015-.473,0-.638a3.944,3.944,0,0,1,2.871-3.442l22.527-6.027a13.639,13.639,0,0,1,3.525-.464h7.48a5.852,5.852,0,0,1,3.007.832l6.977,4.177v21.022Zm11.062-30.813h11.708v31.223H122.547Zm0,0" transform="translate(-21.073 -101.277)" fill="#ff6921"/>
      <path id="Path_34" data-name="Path 34" d="M80.484,15.611,70.016,5.144A17.441,17.441,0,0,0,57.6,0H33.064A9.824,9.824,0,0,0,28.7,1.03L24.328,3.218A5.784,5.784,0,0,1,21.5,3.83l-1.983-.07V0H0V42.931H19.514V37.077h3.318l1.181.78a21.514,21.514,0,0,0,11.113,3.577V66.348h81.959V15.611ZM15.611,39.028H3.9V3.9H15.611ZM26.172,34.61,24,33.174H19.514V7.666l1.84.066a9.8,9.8,0,0,0,4.718-1.022l4.37-2.188A5.865,5.865,0,0,1,33.064,3.9H57.6a13.568,13.568,0,0,1,9.659,4l7.708,7.708h-16.1l-4.737-4.736-2.758,2.758L65.152,27.42a3.913,3.913,0,0,1-5.523,5.546L48.116,21.452,46.75,22.623a10.343,10.343,0,0,1-13.153.194L32.466,21.9l-2.459,3.032,1.143.927a14.225,14.225,0,0,0,3.975,2.24v9.429a17.6,17.6,0,0,1-8.953-2.92Zm27.759-1.827,2.944,2.945a7.862,7.862,0,0,0,11.025.01,9.878,9.878,0,1,0,1.109-1.415,7.675,7.675,0,0,0,.639-7H95.781a11.741,11.741,0,0,0,9.6,9.6v8.13a11.741,11.741,0,0,0-9.6,9.6H56.429a11.741,11.741,0,0,0-9.6-9.6v-8.13a11.649,11.649,0,0,0,7.1-4.131Zm16.319,8.2A5.854,5.854,0,1,1,76.1,46.834,5.855,5.855,0,0,1,70.251,40.979Zm42.931,21.465H39.028V28.918a14.189,14.189,0,0,0,8.781-2.244L51.139,30a7.787,7.787,0,0,1-6.256,3.171H42.931V48.785h1.951a7.806,7.806,0,0,1,7.806,7.806v1.951H99.522V56.591a7.806,7.806,0,0,1,7.806-7.806h1.951V33.174h-1.951a7.806,7.806,0,0,1-7.806-7.806V23.417H66.668l-3.9-3.9h50.417Zm0,0" transform="translate(0 0)" fill="#ff6921"/>
    </g>
  </g>
</svg>
