<svg xmlns="http://www.w3.org/2000/svg" width="41.613" height="52.714" viewBox="0 0 41.613 52.714">
  <g id="businessman" transform="translate(-54.364 0.75)">
    <g id="Group_181" data-name="Group 181" transform="translate(64.434)">
      <g id="Group_180" data-name="Group 180" transform="translate(0)">
        <path id="Path_137" data-name="Path 137" d="M158.237,0A10.752,10.752,0,0,0,147.5,10.737c0,5.988,4.789,13.217,10.737,13.217s10.737-7.228,10.737-13.217A10.752,10.752,0,0,0,158.237,0Zm0,22.3c-4.89,0-9.083-6.361-9.083-11.563a9.083,9.083,0,0,1,18.167,0C167.32,15.939,163.126,22.3,158.237,22.3Z" transform="translate(-147.5)" fill="#ff6921" stroke="#ff6921" stroke-width="1.5"/>
      </g>
    </g>
    <g id="Group_183" data-name="Group 183" transform="translate(55.121 22.26)">
      <g id="Group_182" data-name="Group 182" transform="translate(0)">
        <path id="Path_138" data-name="Path 138" d="M85.595,221.284l-.8-.484-6.119,13.449L76.26,225.8h1.381v-1.653H72.529V225.8h1.542l-2.42,8.448L65.533,220.8l-.8.484a20.19,20.19,0,0,0-9.5,19.346l1.018,9.124H94.084L95.1,240.63A20.179,20.179,0,0,0,85.595,221.284Zm-10.424,6.694,2.46,8.589-2.46,5.4-2.46-5.4Zm18.288,12.471-.847,7.652H57.74l-.847-7.652a18.5,18.5,0,0,1,7.934-17.239l10.344,22.754L85.514,223.2A18.506,18.506,0,0,1,93.459,240.449Z" transform="translate(-55.121 -220.8)" fill="#ff6921" stroke="#ff6921" stroke-width="1.5"/>
      </g>
    </g>
    <g id="Group_185" data-name="Group 185" transform="translate(84.254 37.997)">
      <g id="Group_184" data-name="Group 184">
        <rect id="Rectangle_301" data-name="Rectangle 301" width="6.603" height="1.653" fill="#ff6921" stroke="#ff6921" stroke-width="1.5"/>
      </g>
    </g>
  </g>
</svg>
