<svg id="envelope" xmlns="http://www.w3.org/2000/svg" width="13.929" height="10.944" viewBox="0 0 13.929 10.944">
  <g id="Group_17" data-name="Group 17">
    <g id="Group_16" data-name="Group 16">
      <path id="Path_15" data-name="Path 15" d="M1.337,58.193Q1.6,58.38,2.93,59.3T4.967,60.72l.33.237q.253.183.42.3t.4.253a2.345,2.345,0,0,0,.447.21,1.232,1.232,0,0,0,.389.07h.016a1.233,1.233,0,0,0,.389-.07,2.347,2.347,0,0,0,.447-.21q.237-.14.4-.253t.42-.3q.253-.183.33-.237L12.6,58.193a3.693,3.693,0,0,0,.948-.956,2.053,2.053,0,0,0,.381-1.174,1.254,1.254,0,0,0-1.244-1.244H1.244a1.11,1.11,0,0,0-.921.4A1.569,1.569,0,0,0,0,56.235,1.816,1.816,0,0,0,.428,57.3,3.858,3.858,0,0,0,1.337,58.193Z" transform="translate(0 -54.82)" fill="#fff"/>
      <path id="Path_16" data-name="Path 16" d="M13.152,185.113q-2.549,1.725-3.871,2.682-.443.326-.719.509a4.438,4.438,0,0,1-.735.373,2.237,2.237,0,0,1-.855.19H6.957a2.238,2.238,0,0,1-.855-.19,4.44,4.44,0,0,1-.735-.373q-.276-.183-.719-.509Q3.6,187.025.785,185.113A4.118,4.118,0,0,1,0,184.437v6.172a1.2,1.2,0,0,0,.365.878,1.2,1.2,0,0,0,.878.365H12.686a1.247,1.247,0,0,0,1.244-1.244v-6.172A4.286,4.286,0,0,1,13.152,185.113Z" transform="translate(0 -180.908)" fill="#fff"/>
    </g>
  </g>
</svg>
