<svg xmlns="http://www.w3.org/2000/svg" width="38.536" height="50" viewBox="0 0 38.536 50">
  <g id="location" transform="translate(-24.89)">
    <path id="Path_135" data-name="Path 135" d="M44.157,0A19.29,19.29,0,0,0,24.89,19.27c0,7.592,3.179,15.272,9.192,22.209a48.715,48.715,0,0,0,9.13,8.24,1.728,1.728,0,0,0,1.89,0,48.721,48.721,0,0,0,9.131-8.239c6.014-6.938,9.193-14.617,9.193-22.21A19.291,19.291,0,0,0,44.157,0Zm0,46.152c-3.544-2.641-15.813-12.8-15.813-26.882a15.813,15.813,0,1,1,31.627,0C59.971,33.349,47.7,43.511,44.157,46.152Z" transform="translate(0)" fill="#ff6921"/>
    <path id="Path_136" data-name="Path 136" d="M83.567,50.449a8.215,8.215,0,1,0,8.215,8.216A8.225,8.225,0,0,0,83.567,50.449Zm0,12.72a4.5,4.5,0,1,1,4.5-4.5A4.509,4.509,0,0,1,83.567,63.169Z" transform="translate(-39.408 -39.211)" fill="#ff6921"/>
  </g>
</svg>
