<svg xmlns="http://www.w3.org/2000/svg" xmlns:xlink="http://www.w3.org/1999/xlink" width="117" height="118" viewBox="0 0 117 118">
  <defs>
    <clipPath id="clip-path">
      <rect id="Rectangle_45" data-name="Rectangle 45" width="117" height="118" transform="translate(0 -0.458)" fill="#ff6921"/>
    </clipPath>
  </defs>
  <g id="Mask_Group_1" data-name="Mask Group 1" transform="translate(0 0.458)" clip-path="url(#clip-path)">
    <g id="bar-graph" transform="translate(0 0.187)">
      <path id="Path_28" data-name="Path 28" d="M110.861,150.652V80.635H83.632v70.017H71.962V96.194H44.733v54.458H33.064v-38.9H5.835v38.9H0v11.67H116.7v-11.67ZM87.522,84.524h19.449v66.127H87.522Zm-38.9,15.559H68.072v50.568H48.623Zm-38.9,15.559H29.174v35.009H9.725Zm103.081,42.788H3.89v-3.89H112.806Zm0,0" transform="translate(0 -45.611)" fill="#ff6921"/>
      <path id="Path_29" data-name="Path 29" d="M17.838,51.918l-7.78-13.475L58.906,10.238l7.78,13.475L93.636,8.154,89.026.168,122.765.32,106.038,29.614l-4.612-7.987L61,44.966,53.22,31.493ZM15.372,39.859l3.89,6.738L54.634,26.175l7.78,13.474L102.839,16.31l3.168,5.491L116.078,4.174l-20.3-.085,3.17,5.488L65.261,29.026l-7.78-13.475Zm0,0" transform="translate(-5.68 -0.168)" fill="#ff6921"/>
    </g>
  </g>
</svg>
