<svg id="telephone-handle-silhouette" xmlns="http://www.w3.org/2000/svg" width="14.725" height="14.725" viewBox="0 0 14.725 14.725">
  <g id="Group_15" data-name="Group 15">
    <path id="Path_14" data-name="Path 14" d="M14.7,11.409q-.062-.188-.795-.554-.2-.115-.564-.314t-.664-.366q-.3-.167-.56-.324-.042-.031-.261-.183a2.939,2.939,0,0,0-.371-.225.685.685,0,0,0-.3-.073.868.868,0,0,0-.523.3,5.092,5.092,0,0,0-.575.649,6.3,6.3,0,0,1-.554.648.8.8,0,0,1-.481.3.711.711,0,0,1-.235-.052c-.094-.035-.165-.065-.215-.089s-.132-.073-.251-.147-.185-.113-.2-.12A10.99,10.99,0,0,1,5.7,9.035,10.984,10.984,0,0,1,3.88,6.577q-.01-.021-.12-.2t-.146-.251a2.266,2.266,0,0,1-.089-.214.708.708,0,0,1-.052-.235.8.8,0,0,1,.3-.481,6.3,6.3,0,0,1,.648-.554,5.09,5.09,0,0,0,.648-.575.868.868,0,0,0,.3-.523.683.683,0,0,0-.073-.3,2.907,2.907,0,0,0-.225-.371q-.152-.22-.183-.261-.157-.261-.324-.559t-.366-.664q-.2-.366-.314-.565Q3.514.094,3.325.031A.586.586,0,0,0,3.106,0a3.446,3.446,0,0,0-.737.1,4.142,4.142,0,0,0-.716.22A2.8,2.8,0,0,0,.543,1.6,4.054,4.054,0,0,0,.01,3.545a4.038,4.038,0,0,0,.037.549,4.512,4.512,0,0,0,.131.6q.094.335.152.5t.214.58q.157.418.188.512A9.472,9.472,0,0,0,1.6,8.115a15.506,15.506,0,0,0,2.254,2.766,15.514,15.514,0,0,0,2.766,2.254A9.487,9.487,0,0,0,8.45,14q.094.031.512.188t.58.214q.162.058.5.152a4.553,4.553,0,0,0,.6.131,3.88,3.88,0,0,0,2.494-.5,2.8,2.8,0,0,0,1.276-1.109,4.118,4.118,0,0,0,.22-.716,3.438,3.438,0,0,0,.1-.737A.583.583,0,0,0,14.7,11.409Z" transform="translate(-0.01)" fill="#fdfbed"/>
  </g>
</svg>
