<svg id="Lag_1" data-name="Lag 1" xmlns="http://www.w3.org/2000/svg" xmlns:xlink="http://www.w3.org/1999/xlink" viewBox="0 0 817.25 437.87"><defs><style>.cls-1,.cls-3{fill:#141f35;}.cls-2{fill:none;}.cls-2,.cls-3{stroke:#141f35;stroke-miterlimit:10;}.cls-4{fill:url(#Ikke-navngivet_forløb_4);}.cls-5{fill:url(#Ikke-navngivet_forløb_4-2);}.cls-6{fill:url(#Ikke-navngivet_forløb_4-3);}.cls-7{fill:url(#Ikke-navngivet_forløb_4-4);}.cls-8{fill:url(#Ikke-navngivet_forløb_4-5);}.cls-9{fill:url(#Ikke-navngivet_forløb_4-6);}.cls-10{fill:url(#Ikke-navngivet_forløb_4-7);}.cls-11{fill:url(#Ikke-navngivet_forløb_4-8);}.cls-12{fill:url(#Ikke-navngivet_forløb_4-9);}.cls-13{fill:url(#Ikke-navngivet_forløb_4-10);}.cls-14{fill:url(#Ikke-navngivet_forløb_4-11);}.cls-15{fill:url(#Ikke-navngivet_forløb_4-12);}.cls-16{fill:url(#Ikke-navngivet_forløb_4-13);}.cls-17{fill:url(#Ikke-navngivet_forløb_4-14);}.cls-18{fill:url(#Ikke-navngivet_forløb_4-15);}.cls-19{fill:url(#Ikke-navngivet_forløb_4-16);}.cls-20{fill:url(#Ikke-navngivet_forløb_4-17);}.cls-21{fill:url(#Ikke-navngivet_forløb_4-18);}.cls-22{fill:url(#Ikke-navngivet_forløb_4-19);}.cls-23{fill:url(#Ikke-navngivet_forløb_4-20);}.cls-24{font-size:27.74px;}.cls-24,.cls-33,.cls-39,.cls-41,.cls-48,.cls-50,.cls-56,.cls-64,.cls-66,.cls-75,.cls-91,.cls-92,.cls-93{fill:#fff;}.cls-24,.cls-33,.cls-39,.cls-41,.cls-48,.cls-50,.cls-56,.cls-64,.cls-66,.cls-75{font-family:MyriadPro-Regular, Myriad Pro;}.cls-25{letter-spacing:0.01em;}.cls-26{letter-spacing:0em;}.cls-27{letter-spacing:0.02em;}.cls-28{letter-spacing:-0.01em;}.cls-29{fill:url(#Ikke-navngivet_forløb_4-21);}.cls-30{fill:url(#Ikke-navngivet_forløb_4-22);}.cls-31{fill:url(#Ikke-navngivet_forløb_4-23);}.cls-32{fill:url(#Ikke-navngivet_forløb_4-24);}.cls-33{font-size:19.89px;}.cls-34{letter-spacing:-0.03em;}.cls-35{letter-spacing:-0.01em;}.cls-36{letter-spacing:0em;}.cls-37{letter-spacing:-0.01em;}.cls-38{letter-spacing:0em;}.cls-39{font-size:17.65px;}.cls-40{letter-spacing:-0.08em;}.cls-41{font-size:16px;}.cls-42{letter-spacing:-0.03em;}.cls-43{letter-spacing:0.02em;}.cls-44{letter-spacing:-0.03em;}.cls-45{letter-spacing:0em;}.cls-46{letter-spacing:0em;}.cls-47{letter-spacing:-0.01em;}.cls-48{font-size:14px;}.cls-49{letter-spacing:0.01em;}.cls-50,.cls-56{font-size:15.21px;}.cls-51{letter-spacing:0em;}.cls-52{letter-spacing:0.01em;}.cls-53{letter-spacing:0em;}.cls-54{letter-spacing:0em;}.cls-55{letter-spacing:-0.01em;}.cls-56{letter-spacing:-0.01em;}.cls-57{letter-spacing:0em;}.cls-58{letter-spacing:0.01em;}.cls-59{letter-spacing:-0.01em;}.cls-60{letter-spacing:-0.07em;}.cls-61{letter-spacing:-0.07em;}.cls-62{letter-spacing:0em;}.cls-63{letter-spacing:-0.01em;}.cls-64{font-size:17px;}.cls-65{letter-spacing:0em;}.cls-66{font-size:18px;}.cls-67{letter-spacing:-0.01em;}.cls-68{letter-spacing:0.01em;}.cls-69{letter-spacing:0em;}.cls-70{letter-spacing:0em;}.cls-71{letter-spacing:0.02em;}.cls-72{letter-spacing:-0.01em;}.cls-73{letter-spacing:0.02em;}.cls-74{letter-spacing:0em;}.cls-75{font-size:15px;}.cls-76{letter-spacing:0em;}.cls-77{letter-spacing:-0.01em;}.cls-78{letter-spacing:0em;}.cls-79{letter-spacing:0em;}.cls-80{letter-spacing:-0.01em;}.cls-81{letter-spacing:-0.01em;}.cls-82{letter-spacing:0.01em;}.cls-83{letter-spacing:0em;}.cls-84{letter-spacing:-0.01em;}.cls-85{fill:url(#Ikke-navngivet_forløb_5);}.cls-86{fill:url(#Ikke-navngivet_forløb_5-2);}.cls-87{fill:url(#Ikke-navngivet_forløb_5-3);}.cls-88{fill:url(#Ikke-navngivet_forløb_5-4);}.cls-89{fill:url(#Ikke-navngivet_forløb_5-5);}.cls-90,.cls-91,.cls-92,.cls-93{isolation:isolate;}.cls-91{opacity:0.9;}.cls-91,.cls-92,.cls-93{font-size:38.92px;font-family:FuturaPT-Heavy, Futura PT;font-weight:800;}.cls-92{letter-spacing:-0.01em;}</style><linearGradient id="Ikke-navngivet_forløb_4" x1="364.1" y1="1.46" x2="589.3" y2="1.46" gradientUnits="userSpaceOnUse"><stop offset="0" stop-color="#e94e1b"/><stop offset="0.36" stop-color="#ec6412"/><stop offset="0.99" stop-color="#f39200"/></linearGradient><linearGradient id="Ikke-navngivet_forløb_4-2" x1="586.93" y1="680.16" x2="658.78" y2="680.16" gradientTransform="translate(-23.34 -209.67)" xlink:href="#Ikke-navngivet_forløb_4"/><linearGradient id="Ikke-navngivet_forløb_4-3" x1="601.57" y1="505.93" x2="826.77" y2="505.93" gradientTransform="matrix(1, 0, 0, -1, -3.85, 1011.86)" xlink:href="#Ikke-navngivet_forløb_4"/><linearGradient id="Ikke-navngivet_forløb_4-4" x1="458.61" y1="456.77" x2="530.47" y2="456.77" gradientTransform="matrix(1, 0, 0, -1, 328.37, 928.22)" xlink:href="#Ikke-navngivet_forløb_4"/><linearGradient id="Ikke-navngivet_forløb_4-5" x1="499.42" y1="158.8" x2="643.28" y2="158.8" xlink:href="#Ikke-navngivet_forløb_4"/><linearGradient id="Ikke-navngivet_forløb_4-6" x1="744.63" y1="544.85" x2="798.6" y2="544.85" gradientTransform="translate(-36.78 74.4)" xlink:href="#Ikke-navngivet_forløb_4"/><linearGradient id="Ikke-navngivet_forløb_4-7" x1="546.94" y1="645.87" x2="690.8" y2="645.87" gradientTransform="matrix(1, 0, 0, -1, 186.74, 1291.74)" xlink:href="#Ikke-navngivet_forløb_4"/><linearGradient id="Ikke-navngivet_forløb_4-8" x1="319.04" y1="402.14" x2="373.01" y2="402.14" gradientTransform="matrix(1, 0, 0, -1, 531.52, 1022.11)" xlink:href="#Ikke-navngivet_forløb_4"/><linearGradient id="Ikke-navngivet_forløb_4-9" x1="673.38" y1="158.8" x2="817.25" y2="158.8" xlink:href="#Ikke-navngivet_forløb_4"/><linearGradient id="Ikke-navngivet_forløb_4-10" x1="744.63" y1="370.88" x2="798.6" y2="370.88" gradientTransform="translate(137.18 248.37)" xlink:href="#Ikke-navngivet_forløb_4"/><linearGradient id="Ikke-navngivet_forløb_4-11" x1="372.97" y1="645.87" x2="516.84" y2="645.87" gradientTransform="matrix(1, 0, 0, -1, 534.68, 1291.74)" xlink:href="#Ikke-navngivet_forløb_4"/><linearGradient id="Ikke-navngivet_forløb_4-12" x1="319.04" y1="228.17" x2="373.01" y2="228.17" gradientTransform="matrix(1, 0, 0, -1, 705.49, 848.15)" xlink:href="#Ikke-navngivet_forløb_4"/><linearGradient id="Ikke-navngivet_forløb_4-13" x1="314.58" y1="158.8" x2="458.44" y2="158.8" xlink:href="#Ikke-navngivet_forløb_4"/><linearGradient id="Ikke-navngivet_forløb_4-14" x1="744.63" y1="729.69" x2="798.6" y2="729.69" gradientTransform="translate(-221.62 -110.44)" xlink:href="#Ikke-navngivet_forløb_4"/><linearGradient id="Ikke-navngivet_forløb_4-15" x1="731.78" y1="645.87" x2="875.64" y2="645.87" gradientTransform="matrix(1, 0, 0, -1, -182.94, 1291.74)" xlink:href="#Ikke-navngivet_forløb_4"/><linearGradient id="Ikke-navngivet_forløb_4-16" x1="319.04" y1="586.98" x2="373.01" y2="586.98" gradientTransform="matrix(1, 0, 0, -1, 346.68, 1206.95)" xlink:href="#Ikke-navngivet_forløb_4"/><linearGradient id="Ikke-navngivet_forløb_4-17" x1="129.74" y1="158.8" x2="273.6" y2="158.8" xlink:href="#Ikke-navngivet_forløb_4"/><linearGradient id="Ikke-navngivet_forløb_4-18" x1="744.63" y1="914.53" x2="798.6" y2="914.53" gradientTransform="translate(-406.46 -295.28)" xlink:href="#Ikke-navngivet_forløb_4"/><linearGradient id="Ikke-navngivet_forløb_4-19" x1="916.62" y1="645.87" x2="1060.48" y2="645.87" gradientTransform="matrix(1, 0, 0, -1, -552.62, 1291.74)" xlink:href="#Ikke-navngivet_forløb_4"/><linearGradient id="Ikke-navngivet_forløb_4-20" x1="319.04" y1="771.82" x2="373.01" y2="771.82" gradientTransform="matrix(1, 0, 0, -1, 161.84, 1391.79)" xlink:href="#Ikke-navngivet_forløb_4"/><linearGradient id="Ikke-navngivet_forløb_4-21" x1="0.88" y1="120.26" x2="110.19" y2="120.26" xlink:href="#Ikke-navngivet_forløb_4"/><linearGradient id="Ikke-navngivet_forløb_4-22" x1="706.41" y1="1043.39" x2="745.11" y2="1043.39" gradientTransform="translate(-489.46 -470)" xlink:href="#Ikke-navngivet_forløb_4"/><linearGradient id="Ikke-navngivet_forløb_4-23" x1="1079.75" y1="592.48" x2="1189.07" y2="592.48" gradientTransform="matrix(1, 0, 0, -1, -844.33, 1184.96)" xlink:href="#Ikke-navngivet_forløb_4"/><linearGradient id="Ikke-navngivet_forløb_4-24" x1="372.74" y1="934.95" x2="411.44" y2="934.95" gradientTransform="matrix(1, 0, 0, -1, -47.35, 1508.86)" xlink:href="#Ikke-navngivet_forløb_4"/><linearGradient id="Ikke-navngivet_forløb_5" x1="660" y1="933.89" x2="628.85" y2="956.07" gradientTransform="matrix(1, 0, 0, -1, -0.01, 1418.11)" gradientUnits="userSpaceOnUse"><stop offset="0" stop-color="#ec682f"/><stop offset="1" stop-color="#f18c28"/></linearGradient><linearGradient id="Ikke-navngivet_forløb_5-2" x1="662.77" y1="938.22" x2="632.07" y2="960.09" gradientTransform="matrix(1, 0, 0, -1, 0, 1418.11)" xlink:href="#Ikke-navngivet_forløb_5"/><linearGradient id="Ikke-navngivet_forløb_5-3" x1="659.08" y1="933.19" x2="628.38" y2="955.06" gradientTransform="matrix(1, 0, 0, -1, 0, 1418.11)" xlink:href="#Ikke-navngivet_forløb_5"/><linearGradient id="Ikke-navngivet_forløb_5-4" x1="653.98" y1="926.33" x2="623.28" y2="948.19" gradientTransform="matrix(1, 0, 0, -1, 0, 1418.11)" xlink:href="#Ikke-navngivet_forløb_5"/><linearGradient id="Ikke-navngivet_forløb_5-5" x1="659.97" y1="933.9" x2="629" y2="955.96" gradientTransform="matrix(1, 0, 0, -1, 0, 1418.11)" xlink:href="#Ikke-navngivet_forløb_5"/></defs><title>IA - Repenso</title><rect class="cls-1" x="365.91" y="2.91" width="219.78" height="67"/><line class="cls-2" x1="55.1" y1="119.22" x2="55.1" y2="367.67"/><line class="cls-3" x1="477.38" y1="100.97" x2="477.38" y2="68.24"/><line class="cls-2" x1="741.14" y1="157.7" x2="741.14" y2="361.99"/><line class="cls-2" x1="382.33" y1="157.7" x2="382.33" y2="350.64"/><line class="cls-2" x1="567.17" y1="157.7" x2="567.17" y2="437.87"/><line class="cls-2" x1="197.49" y1="157.7" x2="197.49" y2="350.64"/><rect class="cls-4" x="364.1" width="225.2" height="2.91"/><rect class="cls-5" x="563.59" y="468.68" width="71.86" height="3.61" transform="translate(834.59 -563.59) rotate(90)"/><rect class="cls-6" x="597.71" y="504.47" width="225.2" height="2.91" transform="translate(1185.21 577.3) rotate(180)"/><rect class="cls-7" x="786.99" y="469.65" width="71.86" height="3.61" transform="translate(116.04 859.81) rotate(-90)"/><line class="cls-2" x1="472.99" y1="100.28" x2="197.49" y2="100.96"/><line class="cls-2" x1="476.59" y1="87.32" x2="55.1" y2="87.15"/><line class="cls-2" x1="741.14" y1="100.96" x2="472.99" y2="100.28"/><rect class="cls-8" x="499.42" y="157.7" width="143.86" height="2.19"/><rect class="cls-9" x="707.85" y="618.09" width="53.97" height="2.31" transform="translate(1118.67 -550.14) rotate(90)"/><rect class="cls-10" x="733.68" y="644.77" width="143.86" height="2.19" transform="translate(1375.81 857.18) rotate(180)"/><rect class="cls-11" x="850.56" y="618.82" width="53.97" height="2.31" transform="translate(22.15 1062.96) rotate(-90)"/><rect class="cls-1" x="500.57" y="159.89" width="140.4" height="50.32"/><line class="cls-2" x1="567.17" y1="157.7" x2="567.17" y2="100.96"/><rect class="cls-12" x="673.38" y="157.7" width="143.86" height="2.19"/><rect class="cls-13" x="881.82" y="618.09" width="53.97" height="2.31" transform="translate(1292.63 -724.11) rotate(90)"/><rect class="cls-14" x="907.65" y="644.77" width="143.86" height="2.19" transform="translate(1723.74 857.18) rotate(180)"/><rect class="cls-15" x="1024.53" y="618.82" width="53.97" height="2.31" transform="translate(196.12 1236.93) rotate(-90)"/><rect class="cls-1" x="674.54" y="159.89" width="140.4" height="50.32"/><line class="cls-2" x1="741.14" y1="157.7" x2="741.14" y2="100.96"/><rect class="cls-16" x="314.58" y="157.7" width="143.86" height="2.19"/><rect class="cls-17" x="523.01" y="618.09" width="53.97" height="2.31" transform="translate(933.83 -365.3) rotate(90)"/><rect class="cls-18" x="548.84" y="644.77" width="143.86" height="2.19" transform="translate(1006.13 857.18) rotate(180)"/><rect class="cls-19" x="665.72" y="618.82" width="53.97" height="2.31" transform="translate(-162.69 878.12) rotate(-90)"/><rect class="cls-1" x="315.73" y="159.89" width="140.4" height="50.32"/><rect class="cls-1" x="143.13" y="225.8" width="108.73" height="34.05"/><line class="cls-2" x1="382.33" y1="157.7" x2="382.33" y2="100.96"/><rect class="cls-20" x="129.74" y="157.7" width="143.86" height="2.19"/><rect class="cls-21" x="338.17" y="618.09" width="53.97" height="2.31" transform="translate(748.99 -180.46) rotate(90)"/><rect class="cls-22" x="364" y="644.77" width="143.86" height="2.19" transform="translate(636.45 857.18) rotate(180)"/><rect class="cls-23" x="480.88" y="618.82" width="53.97" height="2.31" transform="translate(-347.53 693.28) rotate(-90)"/><rect class="cls-1" x="130.89" y="159.89" width="140.4" height="50.32"/><line class="cls-2" x1="197.49" y1="157.7" x2="197.49" y2="100.96"/><text class="cls-24" transform="translate(154 191.75) scale(0.96 1)"><tspan class="cls-25">S</tspan><tspan class="cls-26" x="13.84" y="0">e</tspan><tspan class="cls-27" x="27.74" y="0">r</tspan><tspan x="37.51" y="0">vi</tspan><tspan class="cls-28" x="57.34" y="0">c</tspan><tspan class="cls-26" x="69.61" y="0">es</tspan></text><rect class="cls-29" x="0.88" y="119.48" width="109.32" height="1.57"/><rect class="cls-30" x="216.94" y="572.51" width="38.7" height="1.75" transform="translate(574.27 -97.46) rotate(90)"/><rect class="cls-31" x="235.42" y="591.69" width="109.32" height="1.57" transform="translate(344.74 750.4) rotate(180)"/><rect class="cls-32" x="325.38" y="573.03" width="38.7" height="1.75" transform="translate(-464.59 484.09) rotate(-90)"/><rect class="cls-1" x="1.75" y="121.05" width="106.69" height="36.09"/><text class="cls-33" transform="translate(28.26 143.9) scale(1.02 1)"><tspan class="cls-34">F</tspan><tspan x="9.07" y="0">oo</tspan><tspan class="cls-35" x="30.92" y="0">t</tspan><tspan class="cls-36" x="37.38" y="0">er</tspan></text><text class="cls-24" transform="translate(349.71 191.75) scale(0.96 1)"><tspan class="cls-37">C</tspan><tspan x="15.9" y="0">ases</tspan></text><text class="cls-24" transform="translate(534.55 191.75) scale(1.02 1)">Om os</text><text class="cls-24" transform="translate(697.65 191.75) scale(0.96 1)">Ko<tspan class="cls-38" x="30.27" y="0">n</tspan><tspan x="45.55" y="0">takt</tspan></text><rect class="cls-1" x="143.13" y="271.2" width="108.73" height="34.05"/><rect class="cls-1" x="143.13" y="316.6" width="108.73" height="34.05"/><text class="cls-39" transform="translate(171.33 248.5) scale(0.96 1)"><tspan class="cls-40">Y</tspan><tspan x="8.21" y="0">delser</tspan></text><text class="cls-41" transform="translate(148.5 293.9) scale(0.96 1)"><tspan class="cls-42">P</tspan><tspan x="8.1" y="0">a</tspan><tspan class="cls-43" x="15.81" y="0">k</tspan><tspan x="23.58" y="0">keløsninger</tspan></text><text class="cls-39" transform="translate(164.32 339.3) scale(0.96 1)"><tspan class="cls-44">V</tspan><tspan class="cls-45" x="9.27" y="0">æ</tspan><tspan class="cls-46" x="22.92" y="0">r</tspan><tspan x="28.76" y="0">k</tspan><tspan class="cls-47" x="37.04" y="0">t</tspan><tspan x="42.78" y="0">øjer</tspan></text><rect class="cls-1" x="5.13" y="171.42" width="99.93" height="29.33"/><rect class="cls-1" x="5.13" y="210.53" width="99.93" height="29.33"/><rect class="cls-1" x="5.13" y="249.64" width="99.93" height="29.33"/><rect class="cls-1" x="5.13" y="288.75" width="99.93" height="29.33"/><rect class="cls-1" x="5.13" y="327.86" width="99.93" height="29.33"/><text class="cls-48" transform="translate(15.13 190.98) scale(1.02 1)"><tspan class="cls-49">C</tspan><tspan x="8.29" y="0">VR-nummer</tspan></text><text class="cls-50" transform="translate(15.13 230.09) scale(1.02 1)"><tspan class="cls-51">G</tspan><tspan x="9.9" y="0">oogle </tspan><tspan class="cls-52" x="49.54" y="0">M</tspan><tspan class="cls-53" x="61.86" y="0">aps</tspan></text><text class="cls-50" transform="translate(16.96 269.2) scale(1.02 1)">Ko<tspan class="cls-54" x="16.59" y="0">n</tspan><tspan x="24.97" y="0">taktin</tspan><tspan class="cls-55" x="61.51" y="0">f</tspan><tspan x="65.75" y="0">o</tspan></text><text class="cls-56" transform="translate(23.07 308.31) scale(1.02 1)">A<tspan class="cls-55" x="9.2" y="0">f</tspan><tspan class="cls-57" x="13.45" y="0">delinger</tspan></text><text class="cls-50" transform="translate(28.15 346.84) scale(1.02 1)">Linked<tspan class="cls-58" x="42.51" y="0">I</tspan><tspan x="46.3" y="0">n</tspan></text><rect class="cls-1" x="327.97" y="225.8" width="108.73" height="34.05"/><rect class="cls-1" x="327.97" y="271.2" width="108.73" height="34.05"/><rect class="cls-1" x="327.97" y="316.6" width="108.73" height="34.05"/><text class="cls-39" transform="translate(338.84 248.5) scale(0.96 1)"><tspan class="cls-59">C</tspan><tspan x="10.12" y="0">ase videoer</tspan></text><text class="cls-39" transform="translate(338.84 293.9) scale(0.96 1)"><tspan class="cls-60">T</tspan><tspan x="7.52" y="0">estimonials</tspan></text><text class="cls-41" transform="translate(335.24 339.3) scale(0.96 1)"><tspan class="cls-61">T</tspan><tspan x="6.82" y="0">ekst om casen</tspan></text><rect class="cls-1" x="512.81" y="403.82" width="108.73" height="34.05"/><rect class="cls-1" x="512.81" y="223.88" width="108.73" height="35.84"/><rect class="cls-1" x="512.81" y="269.28" width="108.73" height="34.05"/><text class="cls-39" transform="translate(525.97 426.52) scale(0.96 1)">Ko<tspan class="cls-62" x="19.26" y="0">n</tspan><tspan x="28.99" y="0">taktin</tspan><tspan class="cls-63" x="71.39" y="0">f</tspan><tspan x="76.32" y="0">o</tspan></text><text class="cls-64" transform="translate(523.62 244.7) scale(0.96 1)">Om <tspan class="cls-65" x="29.5" y="0">R</tspan><tspan x="38.71" y="0">epenso</tspan></text><rect class="cls-1" x="4.7" y="366.97" width="99.93" height="26.41"/><text class="cls-66" transform="translate(34.98 384.74) scale(0.95 1)"><tspan class="cls-67">C</tspan><tspan x="10.31" y="0">ases</tspan></text><text class="cls-39" transform="translate(542.25 291.98) scale(0.96 1)"><tspan class="cls-68">H</tspan><tspan x="11.69" y="0">ie</tspan><tspan class="cls-69" x="24.66" y="0">r</tspan><tspan x="30.35" y="0">a</tspan><tspan class="cls-70" x="38.86" y="0">r</tspan><tspan class="cls-71" x="44.7" y="0">k</tspan><tspan x="53.28" y="0">i</tspan></text><rect class="cls-1" x="686.77" y="225.8" width="108.73" height="34.05"/><rect class="cls-1" x="686.77" y="271.2" width="108.73" height="34.05"/><rect class="cls-1" x="686.77" y="316.6" width="108.73" height="34.05"/><rect class="cls-1" x="512.81" y="312.89" width="108.73" height="34.05"/><rect class="cls-1" x="512.81" y="358.29" width="108.73" height="34.05"/><text class="cls-39" transform="translate(697.65 248.5) scale(0.96 1)">Ko<tspan class="cls-62" x="19.26" y="0">n</tspan><tspan x="28.99" y="0">taktin</tspan><tspan class="cls-63" x="71.39" y="0">f</tspan><tspan x="76.32" y="0">o</tspan></text><text class="cls-39" transform="translate(708.52 293.9) scale(0.96 1)"><tspan class="cls-72">L</tspan><tspan x="8.09" y="0">o</tspan><tspan class="cls-73" x="17.78" y="0">k</tspan><tspan class="cls-74" x="26.38" y="0">a</tspan><tspan x="34.81" y="0">tion</tspan></text><text class="cls-75" transform="translate(691.96 339.3) scale(0.96 1)">Ko<tspan class="cls-76" x="16.36" y="0">n</tspan><tspan x="24.63" y="0">takt</tspan><tspan class="cls-77" x="48.82" y="0">f</tspan><tspan x="53.01" y="0">o</tspan><tspan class="cls-78" x="61.24" y="0">r</tspan><tspan class="cls-79" x="66.21" y="0">mular</tspan></text><rect class="cls-1" x="686.77" y="361.99" width="108.73" height="34.05"/><text class="cls-75" transform="translate(695.41 384.69) scale(0.96 1)">Link til a<tspan class="cls-80" x="51.55" y="0">f</tspan><tspan class="cls-79" x="55.74" y="0">deling</tspan></text><text class="cls-39" transform="translate(531.25 335.59) scale(0.96 1)"><tspan class="cls-59">A</tspan><tspan class="cls-81" x="10.68" y="0">f</tspan><tspan x="15.61" y="0">delinger</tspan></text><text class="cls-39" transform="translate(516.8 380.99) scale(0.96 1)"><tspan class="cls-82">M</tspan><tspan x="14.3" y="0">eda</tspan><tspan class="cls-83" x="41.61" y="0">r</tspan><tspan x="47.46" y="0">bejde</tspan><tspan class="cls-84" x="89.44" y="0">r</tspan><tspan x="95.03" y="0">e</tspan></text><path class="cls-85" d="M628.26,468l9.09-8.75a.51.51,0,0,1,.71,0l9.08,8.75a.47.47,0,0,1,0,.69l-9.08,8.75a.51.51,0,0,1-.71,0l-9.09-8.75A.49.49,0,0,1,628.26,468Z" transform="translate(-235.42 -434.56)"/><path class="cls-86" d="M652.86,471.47h7a.49.49,0,0,1,.51.48v6.72a.49.49,0,0,1-.51.48h-7a.49.49,0,0,1-.51-.48V472A.49.49,0,0,1,652.86,471.47Z" transform="translate(-235.42 -434.56)"/><path class="cls-87" d="M656.9,482.07h6.36a.49.49,0,0,1,.5.49v6.13a.48.48,0,0,1-.5.48H656.9a.49.49,0,0,1-.51-.48v-6.13A.5.5,0,0,1,656.9,482.07Z" transform="translate(-235.42 -434.56)"/><path class="cls-88" d="M642.15,481.59h10.2a.49.49,0,0,1,.51.48v9.83a.5.5,0,0,1-.51.49h-10.2a.5.5,0,0,1-.51-.49v-9.83A.49.49,0,0,1,642.15,481.59Z" transform="translate(-235.42 -434.56)"/><path class="cls-89" d="M637.22,485.67c-9.93-.21-17.81-8.12-17.6-17.69.21-9.32,8-16.81,17.71-17,9.88-.19,18.08,7.33,18.35,16.85a.49.49,0,0,0,.5.47h3.54a.49.49,0,0,0,.5-.49h0C660,456.1,650,446.66,637.71,446.66c-12.41,0-22.53,9.74-22.53,21.69s9.81,21.43,22,21.69a.48.48,0,0,0,.51-.47h0v-3.41A.49.49,0,0,0,637.22,485.67Z" transform="translate(-235.42 -434.56)"/><g class="cls-90"><text class="cls-91" transform="translate(433.29 46.17) scale(0.92 1)">Repe</text><text class="cls-92" transform="translate(515.33 46.17) scale(0.92 1)">n</text><text class="cls-93" transform="translate(535.17 46.17) scale(0.92 1)">so</text></g><line class="cls-2" x1="55.1" y1="121.05" x2="55.1" y2="87.15"/></svg>