<?xml version="1.0" encoding="utf-8"?>
<!-- Generator: Adobe Illustrator 23.0.6, SVG Export Plug-In . SVG Version: 6.00 Build 0)  -->
<svg version="1.1" id="Lag_1" xmlns="http://www.w3.org/2000/svg" xmlns:xlink="http://www.w3.org/1999/xlink" x="0px" y="0px"
	 viewBox="0 0 41.6 52.7" style="enable-background:new 0 0 41.6 52.7;" xml:space="preserve">
<style type="text/css">
	.st0{fill:#FF6921;stroke:#FF6921;stroke-width:1.5;}
</style>
<g id="businessman" transform="translate(-54.364 0.75)">
	<g id="Group_181" transform="translate(64.434)">
		<g id="Group_180" transform="translate(0)">
			<path id="Path_137" class="st0" d="M11,1.9c-5.5-0.2-10.1,4-11,8.9C-1.2,17.2,4,24,10.7,24c6.7,0,11.9-6.8,10.7-13.2
				C20.6,6,16.3,2,11,1.9z M10.7,22.3C5,22.3,0.2,16,1.7,10.7c1-3.8,5-6.4,9.1-6.4c4,0,8.1,2.6,9.1,6.4C21.2,16,16.5,22.3,10.7,22.3
				z"/>
		</g>
	</g>
	<g id="Group_183" transform="translate(55.121 22.26)">
		<g id="Group_182" transform="translate(0)">
			<path id="Path_138" class="st0" d="M30.5,0.5L29.7,0l-6.1,13.4L21.1,5h1.4V3.3h-5.1V5H19l-2.4,8.4L10.4,0L9.6,0.5
				C3,4.6-0.7,12.1,0.1,19.8l1,9.1H39l1-9.1C40.8,12.1,37.1,4.6,30.5,0.5z M20.1,7.2l2.5,8.6l-2.5,5.4l-2.5-5.4L20.1,7.2z
				 M38.3,19.6l-0.8,7.7H2.6l-0.8-7.7C1,12.9,4.1,6.3,9.7,2.4l10.3,22.8L30.4,2.4C36,6.2,39.1,12.9,38.3,19.6L38.3,19.6z"/>
		</g>
	</g>
</g>
<path class="st0" d="M34.9,39.5"/>
</svg>
