<svg id="computer" xmlns="http://www.w3.org/2000/svg" width="73.855" height="78.047" viewBox="0 0 73.855 78.047">
  <path id="Path_176" data-name="Path 176" d="M49.667,52.024,49.1,57.339a1.523,1.523,0,0,0,1.513,1.681H66.7a1.519,1.519,0,0,0,1.513-1.681l-.562-5.315,25.77.071q-.067-24.7-.138-49.387L22.83,2.57q.2,24.833.418,49.664Zm15.342,3.955h-12.7l.418-3.955H64.589ZM90.077,5.091q.105,18.3.215,36.6H25.805q.045-18.437.093-36.88ZM25.805,44.723H90.3q-.11,2.231-.221,4.441L25.621,49.3Q25.7,47.012,25.805,44.723Z" transform="translate(-22.83 -2.57)" fill="#ff6921"/>
  <path id="Path_177" data-name="Path 177" d="M108.885,299.542a1.519,1.519,0,0,0,.049-1.491l-3-5.78a1.523,1.523,0,0,0-1.351-.811H54.008a1.521,1.521,0,0,0-1.349.811l-3.006,5.788A1.523,1.523,0,0,0,51,300.29h56.582a1.525,1.525,0,0,0,1.3-.748Zm-55.365-2.31,1.42-2.738h48.717l1.42,2.738Z" transform="translate(-44.075 -232.872)" fill="#ff6921"/>
  <path id="Path_178" data-name="Path 178" d="M320.818,348.42h-2.434A6.4,6.4,0,0,0,312,354.806a1.521,1.521,0,0,0,1.521,1.521h12.168a1.521,1.521,0,0,0,1.521-1.521A6.394,6.394,0,0,0,320.818,348.42Zm-5.413,4.867a3.352,3.352,0,0,1,2.979-1.825h2.434a3.354,3.354,0,0,1,2.981,1.825Z" transform="translate(-253.355 -278.281)" fill="#ff6921"/>
  <path id="Path_179" data-name="Path 179" d="M30.71,14.47l67.262.02" transform="translate(-29.112 -12.057)" fill="#ff6921"/>
</svg>
