<svg xmlns="http://www.w3.org/2000/svg" width="43.095" height="44.785" viewBox="0 0 43.095 44.785">
  <path id="Path_195" data-name="Path 195" d="M31.2-27.755a7.154,7.154,0,0,0-7.15-5.005c-6.76,0-11.375,6.24-11.375,13.195,0,5.785,3.51,10.465,9.1,10.465A9.814,9.814,0,0,0,29.9-13.715,4.528,4.528,0,0,0,34.645-9.36c5.135,0,10.595-6.305,10.595-15.34,0-11.635-9.49-19.24-20.54-19.24A22.253,22.253,0,0,0,2.145-21.515c0,13.2,9.685,22.36,23.14,22.36A34.091,34.091,0,0,0,39.91-2.275l-.975-2.99A31.246,31.246,0,0,1,25.35-2.275C10.4-2.275,5.46-13.26,5.46-21.45A19.2,19.2,0,0,1,24.765-40.82c9.49,0,17.355,6.37,17.355,16.185,0,7.735-4.29,12.415-7.345,12.415-2.145,0-2.34-2.08-2.4-2.99v-.52c.13-1.3,1.235-8.515,3.055-16.185h-3.38ZM22.49-12.61c-3.055,0-6.045-2.4-6.045-7.085,0-4.875,3.38-9.555,7.93-9.555,2.795,0,5.59,1.755,5.59,6.305C29.965-17.68,27.105-12.61,22.49-12.61Z" transform="translate(-2.145 43.94)" fill="#ff6921"/>
</svg>
