<svg xmlns="http://www.w3.org/2000/svg" xmlns:xlink="http://www.w3.org/1999/xlink" width="105" height="105" viewBox="0 0 105 105">
  <defs>
    <clipPath id="clip-path">
      <rect id="Rectangle_415" data-name="Rectangle 415" width="105" height="105" transform="translate(-0.457 -0.458)" fill="#ff6921"/>
    </clipPath>
  </defs>
  <g id="Mask_Group_59" data-name="Mask Group 59" transform="translate(0.457 0.458)" clip-path="url(#clip-path)">
    <g id="time" transform="translate(6.931 -0.049)">
      <path id="Path_202" data-name="Path 202" d="M47.095,13.994V10.463H54.07A5.231,5.231,0,0,0,54.07,0H36.632a5.231,5.231,0,0,0,0,10.463h6.975V22.669h3.488V17.481A41.7,41.7,0,0,1,73.669,28.506l-3.662,3.661,2.466,2.466,3.662-3.661A41.69,41.69,0,0,1,87.158,57.545H81.97v3.488h5.188A41.69,41.69,0,0,1,76.134,87.606l-3.662-3.661L70.006,86.41l3.662,3.661A41.7,41.7,0,0,1,47.095,101.1V95.908H43.607V101.1A41.693,41.693,0,0,1,17.034,90.071L20.7,86.41,18.23,83.944l-3.662,3.661A41.69,41.69,0,0,1,3.544,61.032H8.731V57.545H3.551a41.412,41.412,0,0,1,13.9-29.433V38.363h3.488V22.669H5.244v3.488h9.164A45.342,45.342,0,1,0,47.095,13.994ZM34.888,5.231a1.744,1.744,0,0,1,1.744-1.744H54.07a1.744,1.744,0,1,1,0,3.488H36.632A1.744,1.744,0,0,1,34.888,5.231Zm0,0" transform="translate(-0.012 0)" fill="#ff6921"/>
    </g>
  </g>
</svg>
