<svg id="linkedin" xmlns="http://www.w3.org/2000/svg" width="17" height="17" viewBox="0 0 17 17">
  <g id="Group_207" data-name="Group 207">
    <path id="Path_174" data-name="Path 174" d="M245.973,203.707v-.022c0,.007-.011.015-.015.022Z" transform="translate(-236.767 -196.074)" fill="#001624"/>
    <path id="Path_175" data-name="Path 175" d="M0,0V17H17V0ZM5.288,14.123H2.765V6.535H5.288ZM4.027,5.5H4.01a1.315,1.315,0,1,1,.033-2.622A1.315,1.315,0,1,1,4.027,5.5Zm10.358,8.624H11.862v-4.06c0-1.02-.365-1.716-1.278-1.716A1.38,1.38,0,0,0,9.29,9.27a1.729,1.729,0,0,0-.084.615v4.238H6.683s.034-6.876,0-7.588H9.206V7.61A2.505,2.505,0,0,1,11.48,6.357c1.66,0,2.9,1.084,2.9,3.415Z" fill="#001624"/>
  </g>
</svg>
