<svg id="Lag_1" data-name="Lag 1" xmlns="http://www.w3.org/2000/svg" xmlns:xlink="http://www.w3.org/1999/xlink" viewBox="0 0 2207.16 470"><defs><style>.cls-1{fill:url(#Ikke-navngivet_forløb_22);}.cls-2{fill:url(#Ikke-navngivet_forløb_22-2);}.cls-3{fill:url(#Ikke-navngivet_forløb_22-3);}.cls-4{fill:url(#Ikke-navngivet_forløb_22-4);}.cls-5{fill:url(#Ikke-navngivet_forløb_22-5);}.cls-6{fill:#fff;}</style><linearGradient id="Ikke-navngivet_forløb_22" x1="446.01" y1="381.81" x2="134.38" y2="159.89" gradientTransform="translate(223 -92.37) rotate(45)" gradientUnits="userSpaceOnUse"><stop offset="0" stop-color="#ff6821"/><stop offset="1" stop-color="#f18c27"/></linearGradient><linearGradient id="Ikke-navngivet_forløb_22-2" x1="474.56" y1="342.26" x2="154.46" y2="114.31" gradientTransform="matrix(1, 0, 0, 1, 0, 0)" xlink:href="#Ikke-navngivet_forløb_22"/><linearGradient id="Ikke-navngivet_forløb_22-3" x1="434.12" y1="393.11" x2="113.04" y2="164.46" gradientTransform="matrix(1, 0, 0, 1, 0, 0)" xlink:href="#Ikke-navngivet_forløb_22"/><linearGradient id="Ikke-navngivet_forløb_22-4" x1="386.95" y1="463.95" x2="70.24" y2="238.42" gradientTransform="matrix(1, 0, 0, 1, 0, 0)" xlink:href="#Ikke-navngivet_forløb_22"/><linearGradient id="Ikke-navngivet_forløb_22-5" x1="445.66" y1="381.56" x2="136.43" y2="161.35" gradientTransform="matrix(1, 0, 0, 1, 0, 0)" xlink:href="#Ikke-navngivet_forløb_22"/></defs><title>repenso_white</title><rect class="cls-1" x="154.41" y="154.41" width="137.18" height="137.18" transform="translate(-92.37 223) rotate(-45)"/><rect class="cls-2" x="368" y="255" width="79" height="79"/><rect class="cls-3" x="408" y="364" width="73" height="73"/><rect class="cls-4" x="262" y="359" width="111" height="111"/><path class="cls-5" d="M223,401A178,178,0,0,1,45,221.24c.55-57.44,28.15-110.56,76.74-144.79a171.32,171.32,0,0,1,69.47-28.71c59.08-10.17,116.61,8.36,157.64,49.4A176.8,176.8,0,0,1,401,223h45C446,80.38,312.12-31,163.18,7.78,95.6,25.36,25.36,95.6,7.78,163.19-31,312.12,80.38,446,223,446V401Z"/><path class="cls-6" d="M801,226.15c18-17.6,21.79-39.4,21.79-57,0-31-12.57-51.14-24.31-62.45-13.41-12.58-35.63-24.31-71.25-24.31H629.13V362h64.55V251.72L769.12,362h78.8L762,247.53A88.06,88.06,0,0,0,801,226.15Zm-54.07-28.92c-10.9,10.9-26.83,12.16-38.56,12.16H693.68V132.68h15.08c8.39,0,25.15.84,35.63,8.81,5.45,4.19,13,12.57,13,28.5C757.39,183.82,751.52,192.62,746.91,197.23Z"/><path class="cls-6" d="M953.75,168.73c-21,0-49,4.19-71.67,26.83-18.86,19.28-28.5,46.94-28.5,73.76,0,31,11.74,55.75,28.08,72.1,21.8,21.79,46.53,26.82,74.61,26.82,21,0,41.07-2.93,59.1-13.83,10.9-6.71,27.66-20.54,36-46.94l-57-5.87c-5,10.48-12.16,15.09-13,15.51-6.29,3.77-15.51,5.44-24.31,5.44-9.22,0-21.8-1.67-31-11.73-7.54-8.38-11.32-21.8-11.32-31.86h139.58v-6.28c0-23.06-4.19-52.4-26.41-75.87C1004.89,172.5,974.71,168.73,953.75,168.73Zm-36.88,74.19a42,42,0,0,1,10.48-20.12c5.87-5.87,15.09-12.16,30.6-12.16,12.15,0,21.79,4.2,28.5,10.48,8.8,8.39,11.73,20.12,12.15,21.8Z"/><path class="cls-6" d="M1209.64,168.73c-14.25,0-38.56,2.93-58.26,28.5V175H1091V457.94h60.36V340.58c6.29,8.8,22.21,27.66,59.52,27.66,24.73,0,44.85-6.71,63.29-25.15s29.76-42.75,29.76-75c0-30.6-11.32-56.17-28.09-72.93C1264.13,183.4,1243.17,168.73,1209.64,168.73Zm17.6,134.54a47.87,47.87,0,0,1-32.27,13A49.23,49.23,0,0,1,1160.6,302a48.44,48.44,0,0,1-13.41-33.12,50,50,0,0,1,14.25-34.36A46.47,46.47,0,0,1,1195,220.7a46.52,46.52,0,0,1,47,46.95C1241.92,279.8,1236.88,294.05,1227.24,303.27Z"/><path class="cls-6" d="M1433.62,168.73c-20.95,0-49,4.19-71.67,26.83-18.86,19.28-28.5,46.94-28.5,73.76,0,31,11.74,55.75,28.08,72.1,21.8,21.79,46.53,26.82,74.61,26.82,20.95,0,41.08-2.93,59.1-13.83,10.9-6.71,27.66-20.54,36-46.94l-57-5.87c-5,10.48-12.15,15.09-13,15.51-6.29,3.77-15.51,5.44-24.31,5.44-9.22,0-21.8-1.67-31-11.73-7.54-8.38-11.32-21.8-11.32-31.86h139.58v-6.28c0-23.06-4.19-52.4-26.41-75.87C1484.76,172.5,1454.58,168.73,1433.62,168.73Zm-36.88,74.19a42,42,0,0,1,10.48-20.12c5.87-5.87,15.09-12.16,30.6-12.16,12.15,0,21.79,4.2,28.5,10.48,8.8,8.39,11.73,20.12,12.15,21.8Z"/><path class="cls-6" d="M1690.14,170c-17.6,0-39.4,3.77-57.84,27.24V175h-60.36V362h60.36V266c0-12.15,1.68-25.57,11.73-35.63,4.62-5,12.58-10.06,25.15-10.06,10.9,0,18.45,3.78,23.06,8.39,9.64,9.64,10.06,25.15,10.06,37.3v96h60.35V243.76c0-15.09-1.26-37.31-18.86-54.91C1727.86,172.92,1706.49,170,1690.14,170Z"/><path class="cls-6" d="M1942.08,262.2c-9.64-8.8-20.54-13-31-16.35l-15.93-5c-7.55-2.51-13.83-3.77-18-6.28-2.93-1.68-5.86-4.2-5.86-8.39a12.9,12.9,0,0,1,3.77-8.38c3.77-3.77,10.9-5.45,17.18-5.45,11.74,0,23.89,5,33.12,10.48l23.89-38.14c-15.09-8.8-34.37-15.93-62-15.93-17.18,0-39.81,3.35-56.58,18.86-10.9,10.06-18,25.15-18,43.17,0,14.25,4.61,24.73,13.41,33.95,8,8,19.28,13.84,30.18,17.19l15.09,4.61c8.8,2.51,14.25,4.19,18.44,6.71,5.45,3.35,6.71,7.54,6.71,10.89a16,16,0,0,1-6.29,12.16c-5.45,4.19-15.09,4.19-18.86,4.19a56.42,56.42,0,0,1-25.15-5.87c-6.29-2.93-14.67-8.8-20.54-13.83L1800,341.42c24.31,21.37,51.56,26.82,76.71,26.82,19.7,0,42.33-2.93,60.77-21.37,8.38-8.39,19.28-24.32,19.28-49C1956.75,283.57,1953,272.26,1942.08,262.2Z"/><path class="cls-6" d="M2179.08,198.91c-16.77-16.77-45.27-30.18-81.74-30.18s-65,13.41-81.73,30.18c-18.86,18.86-28.08,45.69-28.08,69.58s9.22,50.71,28.08,69.57c16.77,16.77,45.27,30.18,81.73,30.18s65-13.41,81.74-30.18c18.86-18.86,28.08-45.68,28.08-69.57S2197.94,217.77,2179.08,198.91Zm-47.79,104.78c-8.8,8.81-20.12,13.42-33.53,13.42-15.92,0-26.82-5.87-34.37-13.42-7.12-7.12-13.83-18-13.83-35.2,0-15.09,5-26.41,13.83-35.21s20.12-13.41,34-13.41,25.15,4.61,33.95,13.41,13.83,20.12,13.83,35.21S2140.09,294.89,2131.29,303.69Z"/></svg>