<svg id="piggy-bank" xmlns="http://www.w3.org/2000/svg" width="60" height="60" viewBox="0 0 60 60">
  <g id="Group_137" data-name="Group 137" transform="translate(18.356 24.889)">
    <g id="Group_136" data-name="Group 136">
      <circle id="Ellipse_2" data-name="Ellipse 2" cx="2" cy="2" r="2" fill="#ff6921"/>
    </g>
  </g>
  <g id="Group_139" data-name="Group 139" transform="translate(46.239)">
    <g id="Group_138" data-name="Group 138">
      <path id="Path_111" data-name="Path 111" d="M341.616,0a5.983,5.983,0,0,0-5.761,4.415q.989.193,1.939.473a3.987,3.987,0,1,1,6.955,3.569,19.346,19.346,0,0,1,1.5,1.313A5.968,5.968,0,0,0,341.616,0Z" transform="translate(-335.855)" fill="#ff6921"/>
    </g>
  </g>
  <g id="Group_141" data-name="Group 141" transform="translate(0 2)">
    <g id="Group_140" data-name="Group 140">
      <path id="Path_112" data-name="Path 112" d="M60,56.126C60,42.66,47.888,31.705,33,31.705a29.075,29.075,0,0,0-8.035,1.15l-8.091-6.587A2.957,2.957,0,0,0,13.7,25.9,3.058,3.058,0,0,0,12,28.653V40.865a23.961,23.961,0,0,0-4.021,6.1H3a3.026,3.026,0,0,0-3,3.053V62.232a3.026,3.026,0,0,0,3,3.053H8a24.156,24.156,0,0,0,4.879,7.1A7.677,7.677,0,0,0,12,75.968,7.575,7.575,0,0,0,19.5,83.6a7.486,7.486,0,0,0,6.531-3.883,29.662,29.662,0,0,0,13.938,0A7.486,7.486,0,0,0,46.5,83.6,7.575,7.575,0,0,0,54,75.968a7.692,7.692,0,0,0-.878-3.583A23.122,23.122,0,0,0,60,56.126ZM48.9,72.1A4.548,4.548,0,1,1,42,75.968c0-.015,0-.028,0-.043a26.62,26.62,0,0,1-18.008,0c0,.014,0,.027,0,.043A4.5,4.5,0,1,1,17.1,72.1a21.3,21.3,0,0,1-7.072-9.873H3V50.021h7.007A20.791,20.791,0,0,1,15,42.087V28.653l9.334,7.6A26.378,26.378,0,0,1,33,34.758c13.255,0,24,9.567,24,21.368A20.377,20.377,0,0,1,48.9,72.1Z" transform="translate(0 -25.6)" fill="#ff6921"/>
    </g>
  </g>
</svg>
