<svg xmlns="http://www.w3.org/2000/svg" width="51" height="59.958" viewBox="0 0 51 59.958">
  <g id="avatar" transform="translate(-36.073)">
    <g id="Group_206" data-name="Group 206" transform="translate(36.073)">
      <path id="Path_170" data-name="Path 170" d="M149.823,32.307h.4a11.457,11.457,0,0,0,8.753-3.787c4.78-5.389,3.986-14.626,3.9-15.508-.31-6.618-3.439-9.784-6.022-11.261A13.8,13.8,0,0,0,150.171,0h-.211a13.826,13.826,0,0,0-6.68,1.7c-2.607,1.478-5.786,4.644-6.1,11.311-.087.882-.882,10.119,3.9,15.508A11.411,11.411,0,0,0,149.823,32.307ZM140.5,13.323c0-.037.012-.074.012-.1.41-8.9,6.73-9.858,9.436-9.858h.149c3.352.074,9.051,1.44,9.436,9.858a.242.242,0,0,0,.012.1c.012.087.882,8.53-3.067,12.975a8.138,8.138,0,0,1-6.394,2.657h-.124a8.111,8.111,0,0,1-6.382-2.657C139.642,21.877,140.486,13.4,140.5,13.323Z" transform="translate(-124.54)" fill="#ff6921"/>
      <path id="Path_171" data-name="Path 171" d="M87.069,274.684v-.037c0-.1-.012-.2-.012-.31-.075-2.458-.236-8.207-5.625-10.045-.037-.012-.087-.025-.124-.037A35.826,35.826,0,0,1,71,259.561a1.676,1.676,0,0,0-1.925,2.744,38.67,38.67,0,0,0,11.336,5.177c2.893,1.031,3.216,4.122,3.3,6.953a2.493,2.493,0,0,0,.012.31,22.536,22.536,0,0,1-.261,3.837c-2.011,1.142-9.9,5.091-21.89,5.091-11.944,0-19.878-3.961-21.9-5.1a21.336,21.336,0,0,1-.261-3.837c0-.1.012-.2.012-.31.087-2.831.41-5.922,3.3-6.953a39.032,39.032,0,0,0,11.336-5.178,1.676,1.676,0,1,0-1.925-2.744,35.434,35.434,0,0,1-10.305,4.693c-.05.012-.087.025-.124.037-5.389,1.85-5.55,7.6-5.625,10.045a2.494,2.494,0,0,1-.012.31v.037a19.04,19.04,0,0,0,.633,5.625,1.593,1.593,0,0,0,.646.782c.372.248,9.3,5.935,24.236,5.935s23.864-5.7,24.236-5.935a1.662,1.662,0,0,0,.646-.782A19.976,19.976,0,0,0,87.069,274.684Z" transform="translate(-36.073 -227.056)" fill="#ff6921"/>
    </g>
  </g>
</svg>
