<svg xmlns="http://www.w3.org/2000/svg" xmlns:xlink="http://www.w3.org/1999/xlink" width="60" height="60" viewBox="0 0 60 60">
  <defs>
    <clipPath id="clip-path">
      <rect id="Rectangle_328" data-name="Rectangle 328" width="60" height="60" transform="translate(0.12 0.13)" fill="none"/>
    </clipPath>
  </defs>
  <g id="ac-sal" transform="translate(-0.12 -0.13)">
    <g id="Group_208" data-name="Group 208" clip-path="url(#clip-path)">
      <g id="Mask_Group_17" data-name="Mask Group 17">
        <g id="pay">
          <path id="Path_66" data-name="Path 66" d="M50,43.18l-2.55-1.53a5.08,5.08,0,0,0-2.58-.71H41a9.14,9.14,0,0,0-2.33.3L27.1,44.35a4,4,0,0,0-2.72,2.53L14.2,41.37a4,4,0,0,0-2.72-.45,3.59,3.59,0,0,0-1,.33,4,4,0,0,0-.25,7.06l18.2,10.91a5,5,0,0,0,2.64.75H45.19A5.05,5.05,0,0,0,47,59.62l3-1.16V60H60V40H50ZM46.29,57.76a3,3,0,0,1-1.1.21H31.07a3,3,0,0,1-1.6-.46L11.21,46.59a2,2,0,0,1-1-1.74,2.05,2.05,0,0,1,.27-1,1.93,1.93,0,0,1,.86-.79,1.85,1.85,0,0,1,.5-.17h.38a2,2,0,0,1,1,.26l11,6a1.13,1.13,0,0,0,0,.18,4,4,0,0,0,3.87,3,9.21,9.21,0,0,0,1.65-.3L40.2,49.15l-.51-1.94L29.32,50c-.46.11-1.05.23-1.17.24a2,2,0,0,1-1.94-1.48,2.2,2.2,0,0,1-.06-.37V48a2,2,0,0,1,1.48-1.76l11.56-3.1a6.92,6.92,0,0,1,1.81-.2h3.84a3,3,0,0,1,1.54.43L50,45.51v10.8ZM52,42h6V58H52Z" transform="translate(0.12 0.13)" fill="#ff6921"/>
          <path id="Path_67" data-name="Path 67" d="M41.19,7.88,35.82,2.51A8.92,8.92,0,0,0,29.45-.13H16.85A5,5,0,0,0,14.61.4L12.37,1.52a3,3,0,0,1-1.46.32h-1V-.13h-10v22h10v-3h1.7l.61.4a11.07,11.07,0,0,0,5.7,1.84V33.93H60v-26Zm-33.3,12h-6v-18h6Zm5.42-2.27L12.2,16.9H9.9V3.81h.94a5,5,0,0,0,2.43-.53l2.24-1.12a3,3,0,0,1,1.34-.32h12.6A6.92,6.92,0,0,1,34.4,3.92l4,4H30.1L27.66,5.45,26.25,6.87,33.32,14a2,2,0,1,1-2.83,2.84l-5.91-5.91-.7.6a5.3,5.3,0,0,1-6.75.1l-.58-.47-1.27,1.56.58.48a7.49,7.49,0,0,0,2,1.15v4.84a9.1,9.1,0,0,1-4.6-1.5Zm14.08-1.55,1.69,2.12a4,4,0,0,0,5.66,0l.57-.72a4,4,0,0,0,.32-3.6H49.05L54,18.82V23l-4.93,4.93H28.85L23.92,23V18.82ZM58,31.93H19.91V14.72a7.34,7.34,0,0,0,4.51-1.16l1.09,1.09-3.62,2.59v7.67l5,5H51l5-5v-8l-5-5H34.1l-2-2H58Z" transform="translate(0.12 0.13)" fill="#ff6921"/>
        </g>
      </g>
    </g>
    <path id="Path_192" data-name="Path 192" d="M42.61,25.28l-5.31.1L35.42,23V19.63l2.76-3h4.09l2.22,2.88L44.71,23Z" transform="translate(0.12 0.13)" fill="none" stroke="#ff6921" stroke-miterlimit="10" stroke-width="2"/>
  </g>
</svg>
