<svg xmlns="http://www.w3.org/2000/svg" xmlns:xlink="http://www.w3.org/1999/xlink" width="60" height="60" viewBox="0 0 60 60">
  <defs>
    <clipPath id="clip-path">
      <rect id="Rectangle_186" data-name="Rectangle 186" width="60" height="60" transform="translate(0 0.2)" fill="#ff6921"/>
    </clipPath>
  </defs>
  <g id="Mask_Group_17" data-name="Mask Group 17" transform="translate(0 -0.2)" clip-path="url(#clip-path)">
    <g id="pay" transform="translate(-0.123 0.07)">
      <path id="Path_66" data-name="Path 66" d="M79.066,182.575l-2.551-1.529a5.02,5.02,0,0,0-2.574-.711H70.1a9.06,9.06,0,0,0-2.329.3L56.2,183.741a4.034,4.034,0,0,0-2.724,2.526L43.3,180.762a3.987,3.987,0,0,0-2.724-.45,3.76,3.76,0,0,0-1.013.333,3.939,3.939,0,0,0-1.721,1.6,4.014,4.014,0,0,0-.53,1.993,3.97,3.97,0,0,0,1.98,3.465l18.238,10.912a5.008,5.008,0,0,0,2.637.75H74.286a4.993,4.993,0,0,0,1.841-.351l2.939-1.161v1.511H89.084V179.333H79.066Zm-3.675,14.58a3.014,3.014,0,0,1-1.1.21H60.171a3.014,3.014,0,0,1-1.6-.459L40.311,185.981a1.993,1.993,0,0,1-1-1.739,2.035,2.035,0,0,1,.269-1,1.97,1.97,0,0,1,.86-.794,1.887,1.887,0,0,1,.5-.162,2.107,2.107,0,0,1,.384-.036,1.963,1.963,0,0,1,.982.26l11.035,5.963c.013.061.013.121.029.182a4.017,4.017,0,0,0,3.873,2.965,9.841,9.841,0,0,0,1.651-.294l10.408-2.785L68.79,186.6l-10.374,2.773c-.457.105-1.046.225-1.168.236a2,2,0,0,1-1.937-1.476,1.83,1.83,0,0,1-.058-.371s-.008-.243,0-.328a2.025,2.025,0,0,1,1.474-1.767l11.564-3.094a7,7,0,0,1,1.81-.238h3.84a3,3,0,0,1,1.544.427l3.582,2.144V195.7Zm5.679-15.818H87.08v16.028H81.07Zm0,0" transform="translate(-28.977 -139.262)" fill="#ff6921"/>
      <path id="Path_67" data-name="Path 67" d="M41.317,8.014,35.944,2.641A8.953,8.953,0,0,0,29.568,0H16.974a5.043,5.043,0,0,0-2.24.529L12.489,1.652a2.969,2.969,0,0,1-1.453.315l-1.018-.036V0H0V22.039H10.018V19.034h1.7l.606.4a11.044,11.044,0,0,0,5.7,1.836V34.06H60.107V8.014ZM8.014,20.035H2V2H8.014Zm5.422-2.268-1.114-.737h-2.3V3.935l.945.034a5.029,5.029,0,0,0,2.422-.525l2.243-1.123A3.011,3.011,0,0,1,16.974,2H29.569a6.965,6.965,0,0,1,4.959,2.053l3.957,3.957H30.218L27.786,5.583,26.37,7l7.077,7.077a2.009,2.009,0,0,1-2.835,2.847l-5.91-5.91-.7.6a5.31,5.31,0,0,1-6.752.1l-.581-.471L15.4,12.8l.587.476a7.3,7.3,0,0,0,2.041,1.15v4.841a9.034,9.034,0,0,1-4.6-1.5Zm14.25-.938L29.2,18.341a4.036,4.036,0,0,0,5.66,0,5.071,5.071,0,1,0,.569-.726,3.94,3.94,0,0,0,.328-3.6H49.17A6.028,6.028,0,0,0,54.1,18.95v4.173A6.028,6.028,0,0,0,49.17,28.05h-20.2a6.028,6.028,0,0,0-4.926-4.926V18.95a5.98,5.98,0,0,0,3.644-2.121Zm8.378,4.208a3.005,3.005,0,1,1,3.005,3.005A3.005,3.005,0,0,1,36.064,21.037ZM58.1,32.057H20.036V14.845a7.284,7.284,0,0,0,4.508-1.152L26.253,15.4a4,4,0,0,1-3.212,1.628h-1v8.014h1a4.007,4.007,0,0,1,4.007,4.007v1H51.091v-1A4.007,4.007,0,0,1,55.1,25.044h1V17.03h-1a4.007,4.007,0,0,1-4.007-4.007v-1H34.225l-2-2H58.1Zm0,0" transform="translate(0 0)" fill="#ff6921"/>
    </g>
  </g>
</svg>
