<svg xmlns="http://www.w3.org/2000/svg" width="18.324" height="18.306" viewBox="0 0 18.324 18.306">
  <g id="telephone" transform="translate(0.499 0.5)">
    <path id="Path_139" data-name="Path 139" d="M4.405,11.5a18.36,18.36,0,0,0,6.107,4.784A9.5,9.5,0,0,0,13.93,17.3c.082,0,.161.007.244.007a2.83,2.83,0,0,0,2.195-.943.078.078,0,0,0,.014-.018,9.241,9.241,0,0,1,.692-.717c.169-.161.341-.33.506-.5a1.732,1.732,0,0,0-.007-2.578l-2.155-2.155a1.744,1.744,0,0,0-1.262-.581,1.8,1.8,0,0,0-1.277.577L11.6,11.673c-.118-.068-.24-.129-.355-.186a4.435,4.435,0,0,1-.394-.215A13.587,13.587,0,0,1,7.6,8.316a7.824,7.824,0,0,1-1.1-1.75c.337-.3.653-.624.957-.936.108-.111.219-.222.33-.334a1.838,1.838,0,0,0,.6-1.291,1.824,1.824,0,0,0-.6-1.291L6.722,1.646C6.6,1.52,6.478,1.4,6.356,1.273,6.12,1.029,5.872.778,5.628.552A1.788,1.788,0,0,0,4.366,0,1.841,1.841,0,0,0,3.089.556L1.748,1.9A2.756,2.756,0,0,0,.927,3.661a6.637,6.637,0,0,0,.5,2.869A16.69,16.69,0,0,0,4.405,11.5ZM1.8,3.737a1.9,1.9,0,0,1,.57-1.219L3.706,1.183a.966.966,0,0,1,.66-.3.916.916,0,0,1,.645.312c.24.222.466.455.71.7.122.126.247.251.373.38L7.163,3.342a.974.974,0,0,1,.337.671.974.974,0,0,1-.337.671c-.111.111-.222.226-.334.337-.334.337-.645.656-.99.961L5.822,6a.7.7,0,0,0-.179.8c0,.011.007.018.011.029A8.44,8.44,0,0,0,6.912,8.872a14.34,14.34,0,0,0,3.457,3.149,5.133,5.133,0,0,0,.473.258,4.434,4.434,0,0,1,.394.215l.039.022a.75.75,0,0,0,.348.09.761.761,0,0,0,.534-.244L13.5,11.02a.949.949,0,0,1,.656-.319.9.9,0,0,1,.635.319l2.162,2.159a.865.865,0,0,1-.011,1.352c-.151.161-.308.316-.477.477a10.327,10.327,0,0,0-.749.778,1.969,1.969,0,0,1-1.538.653c-.061,0-.126,0-.186-.007a8.635,8.635,0,0,1-3.091-.925,17.442,17.442,0,0,1-5.813-4.554A15.975,15.975,0,0,1,2.254,6.236,5.784,5.784,0,0,1,1.8,3.737Z" transform="translate(-0.912 0)" fill="#001624" stroke="#001624" stroke-width="1"/>
  </g>
</svg>
