<svg xmlns="http://www.w3.org/2000/svg" width="50.998" height="51" viewBox="0 0 50.998 51">
  <g id="telephone" transform="translate(-0.415 0.5)">
    <path id="Path_139" data-name="Path 139" d="M11.006,33.237A53.045,53.045,0,0,0,28.65,47.058a27.461,27.461,0,0,0,9.874,2.922c.238.01.466.021.7.021a8.176,8.176,0,0,0,6.341-2.725.226.226,0,0,0,.041-.052,26.7,26.7,0,0,1,2-2.072c.487-.466.984-.953,1.461-1.45a5,5,0,0,0-.021-7.449l-6.227-6.227a5.04,5.04,0,0,0-3.647-1.678,5.21,5.21,0,0,0-3.688,1.668l-3.709,3.709c-.342-.2-.694-.373-1.026-.539a12.811,12.811,0,0,1-1.14-.622,39.255,39.255,0,0,1-9.376-8.537,22.605,22.605,0,0,1-3.17-5.056c.974-.881,1.886-1.8,2.766-2.7.311-.321.632-.642.953-.964a5.311,5.311,0,0,0,1.72-3.73,5.269,5.269,0,0,0-1.72-3.73L17.7,4.755c-.363-.363-.7-.715-1.057-1.077-.684-.7-1.4-1.43-2.1-2.082A5.165,5.165,0,0,0,10.892,0,5.318,5.318,0,0,0,7.2,1.606L3.328,5.481a7.961,7.961,0,0,0-2.373,5.1A19.175,19.175,0,0,0,2.4,18.867,48.22,48.22,0,0,0,11.006,33.237ZM3.484,10.8A5.48,5.48,0,0,1,5.131,7.273L8.985,3.419a2.79,2.79,0,0,1,1.906-.881,2.647,2.647,0,0,1,1.865.9c.694.642,1.347,1.316,2.051,2.031.352.363.715.725,1.077,1.1l3.087,3.087a2.813,2.813,0,0,1,.974,1.937,2.813,2.813,0,0,1-.974,1.937c-.321.321-.642.653-.964.974-.964.974-1.865,1.9-2.86,2.777l-.052.052a2.026,2.026,0,0,0-.518,2.3c.01.031.021.052.031.083a24.384,24.384,0,0,0,3.637,5.916,41.431,41.431,0,0,0,9.988,9.1,14.83,14.83,0,0,0,1.368.746,12.811,12.811,0,0,1,1.14.622c.041.021.073.041.114.062a2.166,2.166,0,0,0,1,.259,2.2,2.2,0,0,0,1.544-.7l3.875-3.875a2.742,2.742,0,0,1,1.9-.922,2.6,2.6,0,0,1,1.834.922l6.247,6.237a2.5,2.5,0,0,1-.031,3.906c-.435.466-.891.912-1.378,1.378a29.836,29.836,0,0,0-2.165,2.248,5.688,5.688,0,0,1-4.445,1.886c-.176,0-.363-.01-.539-.021A24.948,24.948,0,0,1,29.769,44.8,50.392,50.392,0,0,1,12.974,31.641,46.154,46.154,0,0,1,4.789,18.017,16.71,16.71,0,0,1,3.484,10.8Z" transform="translate(0)" fill="#ff6921" stroke="#ff6921" stroke-width="1"/>
  </g>
</svg>
