<svg xmlns="http://www.w3.org/2000/svg" xmlns:xlink="http://www.w3.org/1999/xlink" viewBox="0 0 481 470"><defs><style>.cls-1{fill:url(#Ikke-navngivet_forløb_22);}.cls-2{fill:url(#Ikke-navngivet_forløb_22-2);}.cls-3{fill:url(#Ikke-navngivet_forløb_22-3);}.cls-4{fill:url(#Ikke-navngivet_forløb_22-4);}.cls-5{fill:url(#Ikke-navngivet_forløb_22-5);}</style><linearGradient id="Ikke-navngivet_forløb_22" x1="446.01" y1="381.81" x2="134.38" y2="159.89" gradientTransform="translate(223 -92.37) rotate(45)" gradientUnits="userSpaceOnUse"><stop offset="0" stop-color="#ff6821"/><stop offset="1" stop-color="#f18c27"/></linearGradient><linearGradient id="Ikke-navngivet_forløb_22-2" x1="474.56" y1="342.26" x2="154.46" y2="114.31" gradientTransform="matrix(1, 0, 0, 1, 0, 0)" xlink:href="#Ikke-navngivet_forløb_22"/><linearGradient id="Ikke-navngivet_forløb_22-3" x1="434.12" y1="393.11" x2="113.04" y2="164.46" gradientTransform="matrix(1, 0, 0, 1, 0, 0)" xlink:href="#Ikke-navngivet_forløb_22"/><linearGradient id="Ikke-navngivet_forløb_22-4" x1="386.95" y1="463.95" x2="70.24" y2="238.42" gradientTransform="matrix(1, 0, 0, 1, 0, 0)" xlink:href="#Ikke-navngivet_forløb_22"/><linearGradient id="Ikke-navngivet_forløb_22-5" x1="445.66" y1="381.56" x2="136.43" y2="161.35" gradientTransform="matrix(1, 0, 0, 1, 0, 0)" xlink:href="#Ikke-navngivet_forløb_22"/></defs><title>favicon</title><g id="Lag_2" data-name="Lag 2"><g id="Lag_1-2" data-name="Lag 1"><rect class="cls-1" x="154.41" y="154.41" width="137.18" height="137.18" transform="translate(-92.37 223) rotate(-45)"/><rect class="cls-2" x="368" y="255" width="79" height="79"/><rect class="cls-3" x="408" y="364" width="73" height="73"/><rect class="cls-4" x="262" y="359" width="111" height="111"/><path class="cls-5" d="M223,401A178,178,0,0,1,45,221.24c.55-57.44,28.15-110.56,76.74-144.79a171.32,171.32,0,0,1,69.47-28.71c59.08-10.17,116.61,8.36,157.64,49.4A176.8,176.8,0,0,1,401,223h45C446,80.38,312.12-31,163.18,7.78,95.6,25.36,25.36,95.6,7.78,163.19-31,312.12,80.38,446,223,446V401Z"/></g></g></svg>