<svg id="Lag_1" data-name="Lag 1" xmlns="http://www.w3.org/2000/svg" xmlns:xlink="http://www.w3.org/1999/xlink" viewBox="0 0 2144 470"><defs><style>.cls-1{fill:url(#Ikke-navngivet_forløb_22);}.cls-2{fill:url(#Ikke-navngivet_forløb_22-2);}.cls-3{fill:url(#Ikke-navngivet_forløb_22-3);}.cls-4{fill:url(#Ikke-navngivet_forløb_22-4);}.cls-5{fill:url(#Ikke-navngivet_forløb_22-5);}.cls-6{opacity:0.9;font-size:400px;fill:#00070c;font-family:FuturaPT-Heavy, Futura PT;font-weight:800;}.cls-7{letter-spacing:-0.01em;}.cls-8{letter-spacing:0em;}</style><linearGradient id="Ikke-navngivet_forløb_22" x1="445.85" y1="381.81" x2="134.22" y2="159.89" gradientTransform="translate(222.95 -92.26) rotate(45)" gradientUnits="userSpaceOnUse"><stop offset="0" stop-color="#ff6821"/><stop offset="1" stop-color="#f18c27"/></linearGradient><linearGradient id="Ikke-navngivet_forløb_22-2" x1="474.41" y1="342.26" x2="154.3" y2="114.31" gradientTransform="matrix(1, 0, 0, 1, 0, 0)" xlink:href="#Ikke-navngivet_forløb_22"/><linearGradient id="Ikke-navngivet_forløb_22-3" x1="433.97" y1="393.11" x2="112.89" y2="164.46" gradientTransform="matrix(1, 0, 0, 1, 0, 0)" xlink:href="#Ikke-navngivet_forløb_22"/><linearGradient id="Ikke-navngivet_forløb_22-4" x1="386.79" y1="463.95" x2="70.08" y2="238.42" gradientTransform="matrix(1, 0, 0, 1, 0, 0)" xlink:href="#Ikke-navngivet_forløb_22"/><linearGradient id="Ikke-navngivet_forløb_22-5" x1="445.5" y1="381.56" x2="136.27" y2="161.35" gradientTransform="matrix(1, 0, 0, 1, 0, 0)" xlink:href="#Ikke-navngivet_forløb_22"/></defs><title>Repenso logo dark</title><rect class="cls-1" x="154.25" y="154.41" width="137.18" height="137.18" transform="translate(-92.42 222.89) rotate(-45)"/><rect class="cls-2" x="367.84" y="255" width="79" height="79"/><rect class="cls-3" x="407.84" y="364" width="73" height="73"/><rect class="cls-4" x="261.84" y="359" width="111" height="111"/><path class="cls-5" d="M222.84,401a178,178,0,0,1-178-179.76C45.4,163.8,73,110.68,121.6,76.45a171.21,171.21,0,0,1,69.47-28.71c59.07-10.17,116.6,8.36,157.64,49.4A176.79,176.79,0,0,1,400.84,223h45C445.84,80.38,312-31,163,7.78,95.44,25.36,25.2,95.6,7.62,163.19-31.12,312.12,80.23,446,222.84,446V401Z"/><text class="cls-6" transform="translate(599.77 350.18)">Repe<tspan class="cls-7" x="919.59" y="0">n</tspan><tspan class="cls-8" x="1141.99" y="0">so</tspan></text></svg>