<svg id="Lag_1" data-name="Lag 1" xmlns="http://www.w3.org/2000/svg" xmlns:xlink="http://www.w3.org/1999/xlink" viewBox="0 0 2144 470"><defs><style>.cls-1{fill:url(#Ikke-navngivet_forløb_22);}.cls-2{fill:url(#Ikke-navngivet_forløb_22-2);}.cls-3{fill:url(#Ikke-navngivet_forløb_22-3);}.cls-4{fill:url(#Ikke-navngivet_forløb_22-4);}.cls-5{fill:url(#Ikke-navngivet_forløb_22-5);}.cls-6{opacity:0.9;font-size:400px;fill:#fff;font-family:FuturaPT-Heavy, Futura PT;font-weight:800;}.cls-7{letter-spacing:-0.01em;}.cls-8{letter-spacing:0em;}</style><linearGradient id="Ikke-navngivet_forløb_22" x1="443.71" y1="380.28" x2="135.07" y2="160.5" gradientTransform="translate(222.95 -92.26) rotate(45)" gradientUnits="userSpaceOnUse"><stop offset="0" stop-color="#ff6821"/><stop offset="1" stop-color="#f18c27"/></linearGradient><linearGradient id="Ikke-navngivet_forløb_22-2" x1="472" y1="340.55" x2="163.37" y2="120.76" gradientTransform="matrix(1, 0, 0, 1, 0, 0)" xlink:href="#Ikke-navngivet_forløb_22"/><linearGradient id="Ikke-navngivet_forløb_22-3" x1="434.37" y1="393.4" x2="125.73" y2="173.61" gradientTransform="matrix(1, 0, 0, 1, 0, 0)" xlink:href="#Ikke-navngivet_forløb_22"/><linearGradient id="Ikke-navngivet_forløb_22-4" x1="385.02" y1="462.69" x2="76.38" y2="242.91" gradientTransform="matrix(1, 0, 0, 1, 0, 0)" xlink:href="#Ikke-navngivet_forløb_22"/><linearGradient id="Ikke-navngivet_forløb_22-5" x1="443.71" y1="380.28" x2="135.07" y2="160.5" gradientTransform="matrix(1, 0, 0, 1, 0, 0)" xlink:href="#Ikke-navngivet_forløb_22"/></defs><title>Repenso logo white</title><rect class="cls-1" x="154.25" y="154.41" width="137.18" height="137.18" rx="5" transform="translate(-92.42 222.89) rotate(-45)"/><rect class="cls-2" x="367.84" y="255" width="79" height="79" rx="5"/><rect class="cls-3" x="407.84" y="364" width="73" height="73" rx="5"/><rect class="cls-4" x="261.84" y="359" width="111" height="111" rx="5"/><path class="cls-5" d="M218,400.94A178,178,0,0,1,219.13,45a178,178,0,0,1,181.65,173.1,5,5,0,0,0,5,4.86h35a5,5,0,0,0,5-5.14C443.05,97.08,344.29,0,222.84,0,100,0-.16,100.14-.16,223c0,121.44,97.08,220.21,217.87,222.94a5,5,0,0,0,5.13-5v-35A5,5,0,0,0,218,400.94Z"/><text class="cls-6" transform="translate(599.77 350.18)">Repe<tspan class="cls-7" x="919.59" y="0">n</tspan><tspan class="cls-8" x="1141.99" y="0">so</tspan></text></svg>