<?xml version="1.0" encoding="UTF-8"?> <svg xmlns="http://www.w3.org/2000/svg" xmlns:xlink="http://www.w3.org/1999/xlink" width="630px" height="90px" viewBox="0 0 630 90"><!-- Generator: Sketch 52.3 (67297) - http://www.bohemiancoding.com/sketch --><title>impero-logo</title><desc>Created with Sketch.</desc><defs><polygon id="path-1" points="0.2971 0.413470588 90.2267714 0.413470588 90.2267714 90 0.2971 90"></polygon></defs><g id="impero-logo" stroke="none" stroke-width="1" fill="none" fill-rule="evenodd"><g id="Group-28" transform="translate(173.000000, 0.000000)"><path d="M3,90 C1.34157945,90 0,88.756281 0,87.2188327 L0,3.7785211 C0,2.24107276 1.34157945,1 3,1 C4.65842055,1 6,2.24107276 6,3.7785211 L6,87.2188327 C6,88.756281 4.65842055,90 3,90" id="Fill-15" fill="#020303"></path><path d="M274,87.2171794 C274,88.7461436 272.742021,90 271.202128,90 L219.797872,90 C218.231383,90 217,88.7461436 217,87.2171794 L217,3.78017536 C217,3.03156487 217.281915,2.33585971 217.81383,1.80680636 C218.343085,1.28039828 219.042553,1 219.797872,1 L271.202128,1 C272.742021,1 274,2.25121118 274,3.78017536 C274,5.31178481 272.742021,6.56299599 271.202128,6.56299599 L222.593085,6.56299599 L222.593085,42.7052757 L264.635638,42.7052757 C266.172872,42.7052757 267.428191,43.9564868 267.428191,45.485451 C267.428191,47.0144152 266.172872,48.2656264 264.635638,48.2656264 L222.593085,48.2656264 L222.593085,84.437004 L271.202128,84.437004 C272.742021,84.437004 274,85.6617625 274,87.2171794" id="Fill-17" fill="#020303"></path><path d="M114.204111,90 C112.658525,90 111.408222,88.7562916 111.408222,87.2188562 L111.408222,11.7283998 L74.7397823,57.4783473 C74.2077388,58.1425405 73.4043531,58.5262378 72.5530834,58.5262378 L72.5451028,58.5262378 C71.6831923,58.5209454 70.8771463,58.1293095 70.3504232,57.4571778 L34.5917775,11.9030482 L34.5917775,87.2188562 C34.5917775,88.7562916 33.3414752,90 31.7958888,90 C30.2503023,90 29,88.7562916 29,87.2188562 L29,3.8242357 C29,2.63609721 29.7555018,1.58026812 30.8860943,1.19392465 C32.0113664,0.802288799 33.2616687,1.17275514 33.998549,2.11215195 L72.5743652,51.2571588 L112.017412,2.04864343 C112.754293,1.12247757 114.007255,0.767888353 115.127207,1.15423183 C116.249819,1.54586768 117,2.59905057 117,3.7792505 L117,87.2188562 C117,88.7562916 115.749698,90 114.204111,90" id="Fill-19" fill="#020303"></path><path d="M140.795097,90 C139.249948,90 138,88.756281 138,87.2188327 L138,56.7265483 C138,55.1891 139.249948,53.945381 140.795097,53.945381 L172.586329,53.945381 C185.724081,53.945381 196.409807,43.3155532 196.409807,30.2512116 C196.409807,17.18687 185.724081,6.5596884 172.586329,6.5596884 L143.590193,6.5596884 L143.590193,41.2726786 C143.590193,42.810127 142.340245,44.0511997 140.795097,44.0511997 C139.249948,44.0511997 138,42.810127 138,41.2726786 L138,3.7785211 C138,2.24107276 139.249948,1 140.795097,1 L172.586329,1 C188.806399,1 202,14.119912 202,30.2512116 C202,46.3825112 188.806399,59.5077156 172.586329,59.5077156 L143.590193,59.5077156 L143.590193,87.2188327 C143.590193,88.756281 142.340245,90 140.795097,90" id="Fill-21" fill="#020303"></path><path d="M356.954308,89.3887254 C356.455455,89.8041804 355.83985,90 355.226898,90 C354.41759,90 353.581747,89.6401154 353.048399,88.944162 L329.315758,59.2854339 C328.145577,59.4256831 326.946208,59.5077156 325.720305,59.5077156 L297.577595,59.5077156 L297.577595,87.2214789 C297.577595,88.7509886 296.322504,90 294.788798,90 C293.255092,90 292,88.7509886 292,87.2214789 L292,56.7291945 C292,55.202331 293.255092,53.9506734 294.788798,53.9506734 L325.720305,53.9506734 C327.142565,53.9506734 328.506449,53.8368864 329.872986,53.5881426 C329.987086,53.5590343 330.12772,53.5325722 330.263047,53.5325722 C341.197999,51.3917878 349.482134,41.7754586 349.482134,30.2670889 C349.482134,17.2053935 338.825796,6.5596884 325.720305,6.5596884 L297.577595,6.5596884 L297.577595,41.2753248 C297.577595,42.8048345 296.322504,44.0538459 294.788798,44.0538459 C293.255092,44.0538459 292,42.8048345 292,41.2753248 L292,3.7785211 C292,2.24901139 293.255092,1 294.788798,1 L325.720305,1 C341.893208,1 355.057076,14.119912 355.057076,30.2670889 C355.057076,43.02447 346.804783,53.895103 335.339136,57.8697113 L357.400091,85.4723337 C358.34738,86.6922368 358.153676,88.4175661 356.954308,89.3887254" id="Fill-23" fill="#020303"></path><g id="Group-27" transform="translate(366.000000, 0.000000)"><mask id="mask-2" fill="white"><use xlink:href="#path-1"></use></mask><g id="Clip-26"></g><path d="M45.2612714,5.97758824 C23.5497571,5.97758824 5.88507143,23.5752353 5.88507143,45.207 C5.88507143,66.8361176 23.5497571,84.4364118 45.2612714,84.4364118 C66.9754429,84.4364118 84.6401286,66.8361176 84.6401286,45.207 C84.6401286,23.5752353 66.9754429,5.97758824 45.2612714,5.97758824 M45.2612714,90.0005294 C20.4701286,90.0005294 0.2971,69.9040588 0.2971,45.207 C0.2971,20.5072941 20.4701286,0.413470588 45.2612714,0.413470588 C70.0550714,0.413470588 90.2281,20.5072941 90.2281,45.207 C90.2281,69.9040588 70.0550714,90.0005294 45.2612714,90.0005294" id="Fill-25" fill="#020303" mask="url(#mask-2)"></path></g></g><g id="Group"><path d="M39.9999623,22.4860479 C40.0074547,23.8660367 38.8960829,24.992351 37.5124873,24.9999612 C36.1338867,25.0075715 35.0075301,23.8939408 35.0000377,22.5139521 C34.9925453,21.1339633 36.1039171,20.007649 37.4850152,20.0000388 C38.8661133,19.9924285 39.9924699,21.1060592 39.9999623,22.4860479" id="Fill-1" fill="#020303"></path><path d="M9.67788391,60 C7.12030524,60 4.58410654,59.6935967 2.12808272,59.0913557 C0.626139969,58.7215585 -0.290526158,57.2133146 0.0836232814,55.7288433 C0.457772721,54.2364478 1.97575045,53.3410105 3.48838318,53.7028834 C5.5462051,54.2100337 7.62006199,54.4345534 9.82754368,54.4477605 C22.3642224,54.3817253 32.9285991,45.3533928 34.4038169,33.4432843 C34.5908916,31.9244747 35.983262,30.812442 37.5306372,31.026396 C39.0726674,31.2112946 40.1683907,32.5953923 39.9786435,34.1168433 C38.1613462,48.7898646 25.2131031,59.9207578 9.85961363,60 L9.67788391,60 Z" id="Fill-3" fill="#221E1F"></path><path d="M114.250352,40 L106.747032,40 C105.227007,40 104,38.6584206 104,37 C104,35.3415794 105.227007,34 106.747032,34 L114.250352,34 C115.770376,34 117,35.3415794 117,37 C117,38.6584206 115.770376,40 114.250352,40" id="Fill-5" fill="#221E1F"></path><path d="M49.2459876,35 C47.7235506,35 46.4919751,33.7550328 46.4919751,32.2160415 L46.4919751,15.5679169 L38.7540124,15.5679169 C37.2315755,15.5679169 36,14.3229498 36,12.7839585 C36,11.2449672 37.2315755,10 38.7540124,10 L49.2459876,10 C50.7684245,10 52,11.2449672 52,12.7839585 L52,32.2160415 C52,33.7550328 50.7684245,35 49.2459876,35" id="Fill-7" fill="#020303"></path><path d="M35.1549741,89 L27.3480713,89 C19.9878186,89 14,83.4896765 14,76.7181779 L14,66.7964027 C14,65.2505321 15.2722761,64 16.8450259,64 C18.4177758,64 19.6900519,65.2505321 19.6900519,66.7964027 L19.6900519,76.7181779 C19.6900519,80.4085781 23.1251974,83.4071946 27.3480713,83.4071946 L35.1549741,83.4071946 C36.7277239,83.4071946 38,84.6577267 38,86.2035973 C38,87.7494679 36.7277239,89 35.1549741,89" id="Fill-9" fill="#221E1F"></path><path d="M113,47.8088253 L113,87.1885022 C113,88.7332225 111.738667,90 110.197333,90 L83.488,90 C81.944,90 80.6853333,88.7332225 80.6853333,87.1885022 L80.6853333,74.2133864 L72.9466667,74.2133864 L72.9466667,87.1885022 C72.9466667,88.7332225 71.688,90 70.1466667,90 L43.4613333,90 C41.8933333,90 40.6613333,88.7332225 40.6613333,87.1885022 L40.6613333,61.9678703 L37.6053333,64.4399572 L37.6053333,73.6815536 C37.6053333,75.2262739 36.344,76.4877064 34.8026667,76.4877064 C33.232,76.4877064 32,75.2262739 32,73.6815536 L32,63.1197292 C32,62.245813 32.3626667,61.4600903 33.0373333,60.925585 L41.696,53.9048581 C42.5386667,53.2313814 43.688,53.0897375 44.6666667,53.5681197 C45.6213333,54.0438294 46.2666667,55.0273192 46.2666667,56.0963297 L46.2666667,84.3823494 L54,84.3823494 L54,71.4045611 C54,69.830443 55.2346667,68.5957358 56.8053333,68.5957358 C58.344,68.5957358 59.608,69.830443 59.608,71.4045611 L59.608,84.3823494 L67.3413333,84.3823494 L67.3413333,71.4045611 C67.3413333,69.830443 68.6053333,68.5957358 70.1466667,68.5957358 L83.488,68.5957358 C85.0293333,68.5957358 86.2906667,69.830443 86.2906667,71.4045611 L86.2906667,84.3823494 L94.024,84.3823494 L94.024,71.4045611 C94.024,69.830443 95.2853333,68.5957358 96.8293333,68.5957358 C98.3973333,68.5957358 99.6293333,69.830443 99.6293333,71.4045611 L99.6293333,84.3823494 L107.394667,84.3823494 L107.394667,47.8088253 C107.394667,46.2373797 108.626667,45 110.197333,45 C111.738667,45 113,46.2373797 113,47.8088253" id="Fill-11" fill="#221E1F"></path><path d="M112,23.6614049 L112,26.1200434 C112,27.6563602 110.78074,28.9135883 109.226316,28.9135883 C107.700921,28.9135883 106.452631,27.6563602 106.452631,26.1200434 L106.452631,23.6906428 C106.39721,11.0067263 99.627942,5.58708977 83.8461787,5.58708977 L83.0148651,5.58708977 C83.8171487,8.51885001 84.2341251,11.5649037 84.2341251,14.6375373 C84.2341251,33.5783564 68.5341735,49 49.2556148,49 C47.7038294,49 46.4819303,47.7427719 46.4819303,46.2064551 C46.4819303,44.6435584 47.7038294,43.4129102 49.2556148,43.4129102 C65.4833845,43.4129102 78.684117,30.5057228 78.684117,14.6375373 C78.684117,11.5356659 78.1879679,8.49227014 77.1877525,5.58708977 L43.2358485,5.58708977 C25.762428,5.58708977 19.5500081,17.9334418 19.5500081,28.5228641 L19.5500081,45.8715487 C19.5500081,47.4078655 18.3017181,48.6650936 16.7736845,48.6650936 C15.24829,48.6650936 14,47.4078655 14,45.8715487 L14,28.5228641 C14,14.3318687 23.0415253,0 43.2358485,0 L83.8461787,0 C102.707761,0 111.915549,7.73740168 112,23.6614049" id="Fill-13" fill="#221E1F"></path></g></g></svg> 