<svg id="Lag_1" data-name="Lag 1" xmlns="http://www.w3.org/2000/svg" xmlns:xlink="http://www.w3.org/1999/xlink" viewBox="0 0 145.02 192.94"><defs><style>.cls-1{fill:none;stroke:#141f35;stroke-miterlimit:10;}.cls-2{fill:url(#Ikke-navngivet_forløb_4);}.cls-3{fill:url(#Ikke-navngivet_forløb_4-2);}.cls-4{fill:url(#Ikke-navngivet_forløb_4-3);}.cls-5{fill:url(#Ikke-navngivet_forløb_4-4);}.cls-6{fill:#141f35;}.cls-7{font-size:27.74px;}.cls-12,.cls-7,.cls-9{fill:#fff;font-family:MyriadPro-Regular, Myriad Pro;}.cls-8{letter-spacing:-0.01em;}.cls-9{font-size:17.65px;}.cls-10{letter-spacing:-0.01em;}.cls-11{letter-spacing:-0.07em;}.cls-12{font-size:16px;}.cls-13{letter-spacing:-0.07em;}</style><linearGradient id="Ikke-navngivet_forløb_4" x1="1.15" y1="1.09" x2="145.02" y2="1.09" gradientUnits="userSpaceOnUse"><stop offset="0" stop-color="#e94e1b"/><stop offset="0.36" stop-color="#ec6412"/><stop offset="0.99" stop-color="#f39200"/></linearGradient><linearGradient id="Ikke-navngivet_forløb_4-2" x1="363.5" y1="294.39" x2="417.47" y2="294.39" gradientTransform="translate(-104.19 66.73)" xlink:href="#Ikke-navngivet_forløb_4"/><linearGradient id="Ikke-navngivet_forløb_4-3" x1="173.48" y1="387.74" x2="317.34" y2="387.74" gradientTransform="matrix(1, 0, 0, -1, 111.66, 775.48)" xlink:href="#Ikke-navngivet_forløb_4"/><linearGradient id="Ikke-navngivet_forløb_4-4" x1="-121.83" y1="151.68" x2="-67.86" y2="151.68" gradientTransform="matrix(1, 0, 0, -1, 523.85, 513.52)" xlink:href="#Ikke-navngivet_forløb_4"/></defs><title>cases</title><line class="cls-1" x1="68.91" x2="68.91" y2="192.94"/><rect class="cls-2" x="1.15" width="143.86" height="2.19"/><rect class="cls-3" x="259.31" y="359.96" width="53.97" height="2.31" transform="translate(362.27 -259.31) rotate(90)"/><rect class="cls-4" x="285.14" y="386.64" width="143.86" height="2.19" transform="translate(429.01 441.34) rotate(180)"/><rect class="cls-5" x="402.02" y="360.69" width="53.97" height="2.31" transform="translate(-217.98 456.72) rotate(-90)"/><rect class="cls-6" x="2.31" y="2.19" width="140.4" height="50.32"/><text class="cls-7" transform="translate(36.29 34.05) scale(0.96 1)"><tspan class="cls-8">C</tspan><tspan x="15.9" y="0">ases</tspan></text><rect class="cls-6" x="14.54" y="68.1" width="108.73" height="34.05"/><rect class="cls-6" x="14.54" y="113.49" width="108.73" height="34.05"/><rect class="cls-6" x="14.54" y="158.89" width="108.73" height="34.05"/><text class="cls-9" transform="translate(25.42 90.8) scale(0.96 1)"><tspan class="cls-10">C</tspan><tspan x="10.12" y="0">ase videoer</tspan></text><text class="cls-9" transform="translate(25.42 136.19) scale(0.96 1)"><tspan class="cls-11">T</tspan><tspan x="7.52" y="0">estimonials</tspan></text><text class="cls-12" transform="translate(21.82 181.59) scale(0.96 1)"><tspan class="cls-13">T</tspan><tspan x="6.82" y="0">ekst om casen</tspan></text></svg>