<svg id="Lag_1" data-name="Lag 1" xmlns="http://www.w3.org/2000/svg" xmlns:xlink="http://www.w3.org/1999/xlink" viewBox="0 0 145.02 238.34"><defs><style>.cls-1{fill:none;stroke:#141f35;stroke-miterlimit:10;}.cls-2{fill:url(#Ikke-navngivet_forløb_4);}.cls-3{fill:url(#Ikke-navngivet_forløb_4-2);}.cls-4{fill:url(#Ikke-navngivet_forløb_4-3);}.cls-5{fill:#141f35;}.cls-6{fill:#fff;}.cls-7{fill:url(#Ikke-navngivet_forløb_4-4);}</style><linearGradient id="Ikke-navngivet_forløb_4" x1="1.15" y1="1.09" x2="145.02" y2="1.09" gradientUnits="userSpaceOnUse"><stop offset="0" stop-color="#e94e1b"/><stop offset="0.36" stop-color="#ec6412"/><stop offset="0.99" stop-color="#f39200"/></linearGradient><linearGradient id="Ikke-navngivet_forløb_4-2" x1="173.48" y1="365.04" x2="317.34" y2="365.04" gradientTransform="matrix(1, 0, 0, -1, 111.66, 730.08)" xlink:href="#Ikke-navngivet_forløb_4"/><linearGradient id="Ikke-navngivet_forløb_4-3" x1="-99.13" y1="151.68" x2="-45.16" y2="151.68" gradientTransform="matrix(1, 0, 0, -1, 501.15, 490.82)" xlink:href="#Ikke-navngivet_forløb_4"/><linearGradient id="Ikke-navngivet_forløb_4-4" x1="341.17" y1="294.39" x2="395.14" y2="294.39" gradientTransform="translate(-81.86 44.4)" xlink:href="#Ikke-navngivet_forløb_4"/></defs><title>contact</title><line class="cls-1" x1="68.91" x2="68.91" y2="204.29"/><rect class="cls-2" x="1.15" width="143.86" height="2.19"/><rect class="cls-3" x="285.14" y="363.94" width="143.86" height="2.19" transform="translate(429.01 418.64) rotate(180)"/><rect class="cls-4" x="402.02" y="337.99" width="53.97" height="2.31" transform="translate(-195.28 456.72) rotate(-90)"/><rect class="cls-5" x="2.31" y="2.19" width="140.4" height="50.32"/><path class="cls-6" d="M319,334.91l7.55-7.93h2.66l-8.3,8.63,8.56,9.87h-2.71L319.49,337l-.5.53v8h-2V327h2Z" transform="translate(-285.14 -311.43)"/><path class="cls-6" d="M329.88,339.77a5.85,5.85,0,1,1,5.85,6.05A5.8,5.8,0,0,1,329.88,339.77Zm2,0a3.91,3.91,0,0,0,3.88,4.27c2,0,3.88-1.47,3.88-4.27s-1.86-4.3-3.88-4.3S331.85,337,331.85,339.77Z" transform="translate(-285.14 -311.43)"/><path class="cls-6" d="M344.5,334h1.92v1.33a3.84,3.84,0,0,1,3.16-1.61,3.69,3.69,0,0,1,3.16,1.58,5.32,5.32,0,0,1,.64,3.08v7.13h-1.91v-7.07a3.51,3.51,0,0,0-.51-2.11,2.13,2.13,0,0,0-1.81-.83,2.36,2.36,0,0,0-1.94.89,5,5,0,0,0-.79,3.1v6H344.5Z" transform="translate(-285.14 -311.43)"/><path class="cls-6" d="M359,335.8v9.68h-1.91V335.8h-1.17V334h1.17v-4.16H359V334h1.92v1.83Z" transform="translate(-285.14 -311.43)"/><path class="cls-6" d="M371.13,334h1.92v11.51h-1.92v-1.61a4.58,4.58,0,0,1-3.77,1.95c-2.79,0-5.37-2.06-5.37-6.11s2.55-6,5.37-6a4.47,4.47,0,0,1,3.77,1.92ZM364,339.71c0,2.47,1.33,4.33,3.61,4.33s3.67-2,3.67-4.3c0-3-2-4.27-3.67-4.27C365.69,335.47,364,336.91,364,339.71Z" transform="translate(-285.14 -311.43)"/><path class="cls-6" d="M378.58,325.26v13l4-4.27h2.49l-4.73,4.94,5.58,6.57h-2.49l-4.42-5.24-.47.5v4.74h-1.92V325.26Z" transform="translate(-285.14 -311.43)"/><path class="cls-6" d="M389.84,335.8v9.68h-1.91V335.8h-1.17V334h1.17v-4.16h1.91V334h1.92v1.83Z" transform="translate(-285.14 -311.43)"/><rect class="cls-5" x="14.54" y="68.1" width="108.73" height="34.05"/><rect class="cls-5" x="14.54" y="113.49" width="108.73" height="34.05"/><rect class="cls-5" x="14.54" y="158.89" width="108.73" height="34.05"/><path class="cls-6" d="M317.44,395.5l4.8-5.05h1.69l-5.27,5.49,5.44,6.29h-1.72l-4.62-5.4-.32.33v5.07h-1.25V390.45h1.25Z" transform="translate(-285.14 -311.43)"/><path class="cls-6" d="M324.38,398.59a3.72,3.72,0,1,1,3.72,3.85A3.68,3.68,0,0,1,324.38,398.59Zm1.25,0a2.48,2.48,0,1,0,2.47-2.73A2.49,2.49,0,0,0,325.63,398.59Z" transform="translate(-285.14 -311.43)"/><path class="cls-6" d="M333.68,394.9h1.22v.85a2.44,2.44,0,0,1,2-1,2.34,2.34,0,0,1,2,1,3.44,3.44,0,0,1,.41,2v4.54h-1.22v-4.5a2.26,2.26,0,0,0-.32-1.34,1.35,1.35,0,0,0-1.15-.53,1.51,1.51,0,0,0-1.24.56,3.21,3.21,0,0,0-.5,2v3.83h-1.22Z" transform="translate(-285.14 -311.43)"/><path class="cls-6" d="M342.88,396.07v6.16h-1.22v-6.16h-.74V394.9h.74v-2.65h1.22v2.65h1.22v1.17Z" transform="translate(-285.14 -311.43)"/><path class="cls-6" d="M350.62,394.9h1.22v7.33h-1.22v-1a2.92,2.92,0,0,1-2.4,1.23c-1.77,0-3.41-1.31-3.41-3.88s1.62-3.83,3.41-3.83a2.87,2.87,0,0,1,2.4,1.21Zm-4.56,3.66c0,1.57.84,2.75,2.3,2.75a2.47,2.47,0,0,0,2.33-2.73,2.44,2.44,0,0,0-2.33-2.72C347.16,395.86,346.06,396.77,346.06,398.56Z" transform="translate(-285.14 -311.43)"/><path class="cls-6" d="M355.36,389.36v8.26l2.57-2.72h1.59l-3,3.15,3.55,4.18h-1.59l-2.81-3.34-.3.32v3h-1.22V389.36Z" transform="translate(-285.14 -311.43)"/><path class="cls-6" d="M362.53,396.07v6.16h-1.22v-6.16h-.74V394.9h.74v-2.65h1.22v2.65h1.22v1.17Z" transform="translate(-285.14 -311.43)"/><path class="cls-6" d="M365.51,391.23a.9.9,0,0,1,0,1.8.9.9,0,0,1,0-1.8Zm.61,3.67v7.33H364.9V394.9Z" transform="translate(-285.14 -311.43)"/><path class="cls-6" d="M368.42,394.9h1.21v.85a2.46,2.46,0,0,1,2-1,2.35,2.35,0,0,1,2,1,3.44,3.44,0,0,1,.4,2v4.54h-1.21v-4.5a2.26,2.26,0,0,0-.32-1.34,1.35,1.35,0,0,0-1.15-.53,1.51,1.51,0,0,0-1.24.56,3.22,3.22,0,0,0-.51,2v3.83h-1.21Z" transform="translate(-285.14 -311.43)"/><path class="cls-6" d="M377.62,396.07v6.16H376.4v-6.16h-.68V394.9h.68v-3.19a2.61,2.61,0,0,1,.68-2.07,2.11,2.11,0,0,1,1.4-.47,2.34,2.34,0,0,1,.86.15v1.24a2,2,0,0,0-.79-.16.85.85,0,0,0-.78.39,2.31,2.31,0,0,0-.15,1.06v3h1.72v1.17Z" transform="translate(-285.14 -311.43)"/><path class="cls-6" d="M380,398.59a3.72,3.72,0,1,1,3.72,3.85A3.68,3.68,0,0,1,380,398.59Zm1.25,0a2.48,2.48,0,1,0,2.47-2.73A2.49,2.49,0,0,0,381.24,398.59Z" transform="translate(-285.14 -311.43)"/><path class="cls-6" d="M328.31,435.85v10.54h3.11v1.24h-4.36V435.85Z" transform="translate(-285.14 -311.43)"/><path class="cls-6" d="M332.37,444a3.72,3.72,0,1,1,3.72,3.85A3.69,3.69,0,0,1,332.37,444Zm1.25,0a2.48,2.48,0,1,0,2.47-2.74A2.49,2.49,0,0,0,333.62,444Z" transform="translate(-285.14 -311.43)"/><path class="cls-6" d="M342.89,434.76V443l2.57-2.72h1.59l-3,3.14,3.55,4.19H346l-2.8-3.34-.31.32v3h-1.22V434.76Z" transform="translate(-285.14 -311.43)"/><path class="cls-6" d="M354.19,440.3h1.22v7.33h-1.22v-1a2.93,2.93,0,0,1-2.4,1.24c-1.78,0-3.42-1.31-3.42-3.88s1.63-3.84,3.42-3.84a2.87,2.87,0,0,1,2.4,1.22ZM349.62,444c0,1.57.85,2.75,2.3,2.75a2.47,2.47,0,0,0,2.34-2.74,2.44,2.44,0,0,0-2.34-2.72C350.72,441.25,349.62,442.17,349.62,444Z" transform="translate(-285.14 -311.43)"/><path class="cls-6" d="M359,441.47v6.16h-1.22v-6.16H357V440.3h.74v-2.65H359v2.65h1.22v1.17Z" transform="translate(-285.14 -311.43)"/><path class="cls-6" d="M361.94,436.63a.9.9,0,1,1-.86.9A.88.88,0,0,1,361.94,436.63Zm.61,3.67v7.33h-1.22V440.3Z" transform="translate(-285.14 -311.43)"/><path class="cls-6" d="M364.41,444a3.72,3.72,0,1,1,3.72,3.85A3.69,3.69,0,0,1,364.41,444Zm1.25,0a2.48,2.48,0,1,0,2.47-2.74A2.49,2.49,0,0,0,365.66,444Z" transform="translate(-285.14 -311.43)"/><path class="cls-6" d="M373.71,440.3h1.22v.85a2.44,2.44,0,0,1,2-1,2.35,2.35,0,0,1,2,1,3.44,3.44,0,0,1,.41,2v4.54h-1.22v-4.5a2.29,2.29,0,0,0-.32-1.35,1.38,1.38,0,0,0-1.15-.53,1.52,1.52,0,0,0-1.24.57,3.21,3.21,0,0,0-.5,2v3.83h-1.22Z" transform="translate(-285.14 -311.43)"/><path class="cls-6" d="M316.35,487.31l4.08-4.29h1.44l-4.49,4.66L322,493h-1.47l-3.92-4.59-.27.29V493h-1.07V483h1.07Z" transform="translate(-285.14 -311.43)"/><path class="cls-6" d="M322.24,489.93a3.16,3.16,0,1,1,3.16,3.27A3.13,3.13,0,0,1,322.24,489.93Zm1.06,0a2.11,2.11,0,1,0,2.1-2.32A2.12,2.12,0,0,0,323.3,489.93Z" transform="translate(-285.14 -311.43)"/><path class="cls-6" d="M330.14,486.8h1v.72a2.06,2.06,0,0,1,1.71-.87,2,2,0,0,1,1.71.85,2.92,2.92,0,0,1,.34,1.67V493h-1V489.2a1.85,1.85,0,0,0-.28-1.14,1.14,1.14,0,0,0-1-.45,1.26,1.26,0,0,0-1.05.48,2.72,2.72,0,0,0-.43,1.68V493h-1Z" transform="translate(-285.14 -311.43)"/><path class="cls-6" d="M338,487.79V493h-1v-5.23h-.63v-1h.63v-2.25h1v2.25h1v1Z" transform="translate(-285.14 -311.43)"/><path class="cls-6" d="M344.54,486.8h1V493h-1v-.87a2.46,2.46,0,0,1-2,1.05c-1.51,0-2.9-1.11-2.9-3.3a2.93,2.93,0,0,1,2.9-3.25,2.44,2.44,0,0,1,2,1Zm-3.88,3.1c0,1.34.72,2.34,2,2.34a2.09,2.09,0,0,0,2-2.32,2.07,2.07,0,0,0-2-2.31A2,2,0,0,0,340.66,489.9Z" transform="translate(-285.14 -311.43)"/><path class="cls-6" d="M348.56,482.09v7l2.19-2.31h1.35l-2.56,2.67,3,3.55h-1.35l-2.39-2.83-.26.27V493h-1V482.09Z" transform="translate(-285.14 -311.43)"/><path class="cls-6" d="M354.66,487.79V493h-1v-5.23H353v-1h.63v-2.25h1v2.25h1v1Z" transform="translate(-285.14 -311.43)"/><path class="cls-6" d="M357.88,487.79V493h-1v-5.23h-.57v-1h.57v-2.72a2.17,2.17,0,0,1,.58-1.75,1.8,1.8,0,0,1,1.19-.41,1.78,1.78,0,0,1,.73.14v1.05a1.79,1.79,0,0,0-.67-.14.73.73,0,0,0-.66.33,2,2,0,0,0-.13.91v2.59h1.46v1Z" transform="translate(-285.14 -311.43)"/><path class="cls-6" d="M359.89,489.93a3.16,3.16,0,1,1,3.16,3.27A3.12,3.12,0,0,1,359.89,489.93Zm1.06,0a2.11,2.11,0,1,0,2.1-2.32A2.12,2.12,0,0,0,361,489.93Z" transform="translate(-285.14 -311.43)"/><path class="cls-6" d="M367.79,486.8h1v.67a1.65,1.65,0,0,1,1.35-.82,2.21,2.21,0,0,1,.92.25l-.49,1a1,1,0,0,0-.61-.21,1,1,0,0,0-.83.39,2.81,2.81,0,0,0-.34,1.68V493h-1Z" transform="translate(-285.14 -311.43)"/><path class="cls-6" d="M372,486.8h1v.66a1.72,1.72,0,0,1,1.48-.81,1.77,1.77,0,0,1,1.62,1,2,2,0,0,1,1.8-1c1.77,0,1.94,1.54,1.94,2.43V493h-1v-3.78c0-.7-.09-1.63-1.07-1.63-1.19,0-1.32,1.2-1.32,1.95V493h-1v-3.69c0-.43,0-1.72-1.07-1.72s-1.31,1.27-1.31,2V493h-1Z" transform="translate(-285.14 -311.43)"/><path class="cls-6" d="M382.92,490.43a2.17,2.17,0,0,0,.29,1.33,1.24,1.24,0,0,0,1.05.48,1.26,1.26,0,0,0,1.05-.48,2.17,2.17,0,0,0,.29-1.33V486.8h1v3.75a2.52,2.52,0,0,1-.55,1.87,2.41,2.41,0,0,1-1.82.78,2.44,2.44,0,0,1-1.83-.78,2.56,2.56,0,0,1-.54-1.87V486.8h1Z" transform="translate(-285.14 -311.43)"/><path class="cls-6" d="M389.62,482.09V493h-1V482.09Z" transform="translate(-285.14 -311.43)"/><path class="cls-6" d="M396.14,486.8h1V493h-1v-.87a2.46,2.46,0,0,1-2,1.05c-1.51,0-2.9-1.11-2.9-3.3a2.93,2.93,0,0,1,2.9-3.25,2.44,2.44,0,0,1,2,1Zm-3.88,3.1c0,1.34.72,2.34,2,2.34a2.09,2.09,0,0,0,2-2.32,2.07,2.07,0,0,0-2-2.31A2,2,0,0,0,392.26,489.9Z" transform="translate(-285.14 -311.43)"/><path class="cls-6" d="M399.13,486.8h1v.67a1.65,1.65,0,0,1,1.35-.82,2.21,2.21,0,0,1,.92.25l-.49,1a1,1,0,0,0-1.44.18,2.81,2.81,0,0,0-.34,1.68V493h-1Z" transform="translate(-285.14 -311.43)"/><rect class="cls-5" x="14.54" y="204.29" width="108.73" height="34.05"/><path class="cls-6" d="M319.29,528.42v9h2.65v1h-3.71v-10Z" transform="translate(-285.14 -311.43)"/><path class="cls-6" d="M323.63,529.08a.75.75,0,0,1,.74.76.74.74,0,1,1-1.47,0A.75.75,0,0,1,323.63,529.08Zm.52,3.12v6.22h-1V532.2Z" transform="translate(-285.14 -311.43)"/><path class="cls-6" d="M326.1,532.2h1v.72a2.08,2.08,0,0,1,1.71-.87,2,2,0,0,1,1.71.85,2.92,2.92,0,0,1,.34,1.67v3.85h-1V534.6a1.91,1.91,0,0,0-.27-1.14,1.17,1.17,0,0,0-1-.45,1.26,1.26,0,0,0-1.05.48,2.72,2.72,0,0,0-.43,1.68v3.25h-1Z" transform="translate(-285.14 -311.43)"/><path class="cls-6" d="M333.89,527.49v7l2.19-2.31h1.35l-2.56,2.67,3,3.55h-1.35l-2.39-2.83-.26.27v2.56h-1V527.49Z" transform="translate(-285.14 -311.43)"/><path class="cls-6" d="M343.33,533.19v5.23h-1v-5.23h-.63v-1h.63V530h1v2.25h1v1Z" transform="translate(-285.14 -311.43)"/><path class="cls-6" d="M345.86,529.08a.75.75,0,0,1,.73.76.73.73,0,1,1-1.46,0A.75.75,0,0,1,345.86,529.08Zm.52,3.12v6.22h-1V532.2Z" transform="translate(-285.14 -311.43)"/><path class="cls-6" d="M349.37,527.49v10.93h-1V527.49Z" transform="translate(-285.14 -311.43)"/><path class="cls-6" d="M359.24,532.2h1v6.22h-1v-.87a2.46,2.46,0,0,1-2,1.05c-1.51,0-2.9-1.11-2.9-3.3a2.93,2.93,0,0,1,2.9-3.25,2.44,2.44,0,0,1,2,1Zm-3.88,3.1c0,1.34.72,2.34,2,2.34a2.09,2.09,0,0,0,2-2.32,2.07,2.07,0,0,0-2-2.31A2,2,0,0,0,355.36,535.3Z" transform="translate(-285.14 -311.43)"/><path class="cls-6" d="M363.29,533.19v5.23h-1v-5.23h-.58v-1h.58v-2.72a2.2,2.2,0,0,1,.57-1.75,1.8,1.8,0,0,1,1.2-.41,1.83,1.83,0,0,1,.73.14v1a1.84,1.84,0,0,0-.68-.14.71.71,0,0,0-.66.33,2,2,0,0,0-.13.9v2.6h1.47v1Z" transform="translate(-285.14 -311.43)"/><path class="cls-6" d="M370.25,527.49h1v10.93h-1v-.87a2.48,2.48,0,0,1-2,1.05c-1.51,0-2.91-1.11-2.91-3.3a2.94,2.94,0,0,1,2.91-3.25,2.44,2.44,0,0,1,2,1Zm-3.88,7.81c0,1.34.72,2.34,1.95,2.34a2.09,2.09,0,0,0,2-2.32,2.07,2.07,0,0,0-2-2.31A2,2,0,0,0,366.37,535.3Z" transform="translate(-285.14 -311.43)"/><path class="cls-6" d="M378.53,536.83a3.75,3.75,0,0,1-.74,1,2.81,2.81,0,0,1-2,.76,2.92,2.92,0,0,1-2.95-3.25c0-1.86,1.1-3.3,2.89-3.3a2.64,2.64,0,0,1,2.26,1.14,4.32,4.32,0,0,1,.56,2.34h-4.64a2,2,0,0,0,1.89,2.11,1.79,1.79,0,0,0,1.23-.45,2.35,2.35,0,0,0,.61-.85Zm-1-2.2a1.82,1.82,0,0,0-1.76-1.62,1.84,1.84,0,0,0-1.75,1.62Z" transform="translate(-285.14 -311.43)"/><path class="cls-6" d="M381.18,527.49v10.93h-1V527.49Z" transform="translate(-285.14 -311.43)"/><path class="cls-6" d="M383.66,529.08a.75.75,0,0,1,.73.76.74.74,0,1,1-.73-.76Zm.51,3.12v6.22h-1V532.2Z" transform="translate(-285.14 -311.43)"/><path class="cls-6" d="M386.13,532.2h1v.72a2.08,2.08,0,0,1,1.71-.87,2,2,0,0,1,1.71.85,2.92,2.92,0,0,1,.35,1.67v3.85h-1V534.6a1.91,1.91,0,0,0-.27-1.14,1.15,1.15,0,0,0-1-.45,1.26,1.26,0,0,0-1.05.48,2.72,2.72,0,0,0-.43,1.68v3.25h-1Z" transform="translate(-285.14 -311.43)"/><path class="cls-6" d="M397.45,532.2h1v6.07a4,4,0,0,1-.58,2.45,2.84,2.84,0,0,1-2.38,1.15,2.77,2.77,0,0,1-2.91-2.85h1a2,2,0,0,0,.46,1.29,1.79,1.79,0,0,0,1.44.6,1.65,1.65,0,0,0,1.58-.87,3,3,0,0,0,.33-1.59v-.9a2.46,2.46,0,0,1-2,1.05,2.79,2.79,0,0,1-2-.84,3.46,3.46,0,0,1-.86-2.46,3.34,3.34,0,0,1,.86-2.41,2.88,2.88,0,0,1,2-.84,2.44,2.44,0,0,1,2,1Zm-3.28,1.39a2.77,2.77,0,0,0,.08,3.54,1.87,1.87,0,0,0,2.58,0,2.75,2.75,0,0,0,.05-3.56,1.89,1.89,0,0,0-1.35-.55A1.82,1.82,0,0,0,394.17,533.59Z" transform="translate(-285.14 -311.43)"/><rect class="cls-7" x="259.31" y="337.63" width="53.97" height="2.31" transform="translate(339.94 -258.94) rotate(90)"/></svg>