<svg id="Lag_1" data-name="Lag 1" xmlns="http://www.w3.org/2000/svg" xmlns:xlink="http://www.w3.org/1999/xlink" viewBox="0 0 145.02 238.34"><defs><style>.cls-1{fill:none;stroke:#141f35;stroke-miterlimit:10;}.cls-2{fill:url(#Ikke-navngivet_forløb_4);}.cls-3{fill:url(#Ikke-navngivet_forløb_4-2);}.cls-4{fill:url(#Ikke-navngivet_forløb_4-3);}.cls-5{fill:#141f35;}.cls-6{font-size:27.74px;}.cls-14,.cls-6,.cls-8{fill:#fff;font-family:MyriadPro-Regular, Myriad Pro;}.cls-7{letter-spacing:0em;}.cls-8{font-size:17.65px;}.cls-9{letter-spacing:0em;}.cls-10{letter-spacing:-0.01em;}.cls-11{letter-spacing:-0.01em;}.cls-12{letter-spacing:0.02em;}.cls-13{letter-spacing:0em;}.cls-14{font-size:15px;}.cls-15{letter-spacing:0em;}.cls-16{letter-spacing:-0.01em;}.cls-17{letter-spacing:0em;}.cls-18{letter-spacing:0em;}.cls-19{letter-spacing:-0.01em;}.cls-20{fill:url(#Ikke-navngivet_forløb_4-4);}</style><linearGradient id="Ikke-navngivet_forløb_4" x1="1.15" y1="1.09" x2="145.02" y2="1.09" gradientUnits="userSpaceOnUse"><stop offset="0" stop-color="#e94e1b"/><stop offset="0.36" stop-color="#ec6412"/><stop offset="0.99" stop-color="#f39200"/></linearGradient><linearGradient id="Ikke-navngivet_forløb_4-2" x1="173.48" y1="365.04" x2="317.34" y2="365.04" gradientTransform="matrix(1, 0, 0, -1, 111.66, 730.08)" xlink:href="#Ikke-navngivet_forløb_4"/><linearGradient id="Ikke-navngivet_forløb_4-3" x1="-99.13" y1="151.68" x2="-45.16" y2="151.68" gradientTransform="matrix(1, 0, 0, -1, 501.15, 490.82)" xlink:href="#Ikke-navngivet_forløb_4"/><linearGradient id="Ikke-navngivet_forløb_4-4" x1="341.17" y1="294.39" x2="395.14" y2="294.39" gradientTransform="translate(-81.86 44.4)" xlink:href="#Ikke-navngivet_forløb_4"/></defs><title>contact</title><line class="cls-1" x1="68.91" x2="68.91" y2="204.29"/><rect class="cls-2" x="1.15" width="143.86" height="2.19"/><rect class="cls-3" x="285.14" y="363.94" width="143.86" height="2.19" transform="translate(429.01 418.64) rotate(180)"/><rect class="cls-4" x="402.02" y="337.99" width="53.97" height="2.31" transform="translate(-195.28 456.72) rotate(-90)"/><rect class="cls-5" x="2.31" y="2.19" width="140.4" height="50.32"/><text class="cls-6" transform="translate(25.42 34.05) scale(0.96 1)">Ko<tspan class="cls-7" x="30.27" y="0">n</tspan><tspan x="45.55" y="0">takt</tspan></text><rect class="cls-5" x="14.54" y="68.1" width="108.73" height="34.05"/><rect class="cls-5" x="14.54" y="113.49" width="108.73" height="34.05"/><rect class="cls-5" x="14.54" y="158.89" width="108.73" height="34.05"/><text class="cls-8" transform="translate(25.42 90.8) scale(0.96 1)">Ko<tspan class="cls-9" x="19.26" y="0">n</tspan><tspan x="28.99" y="0">taktin</tspan><tspan class="cls-10" x="71.39" y="0">f</tspan><tspan x="76.32" y="0">o</tspan></text><text class="cls-8" transform="translate(36.29 136.19) scale(0.96 1)"><tspan class="cls-11">L</tspan><tspan x="8.09" y="0">o</tspan><tspan class="cls-12" x="17.78" y="0">k</tspan><tspan class="cls-13" x="26.38" y="0">a</tspan><tspan x="34.81" y="0">tion</tspan></text><text class="cls-14" transform="translate(19.73 181.59) scale(0.96 1)">Ko<tspan class="cls-15" x="16.36" y="0">n</tspan><tspan x="24.63" y="0">takt</tspan><tspan class="cls-16" x="48.82" y="0">f</tspan><tspan x="53.01" y="0">o</tspan><tspan class="cls-17" x="61.24" y="0">r</tspan><tspan class="cls-18" x="66.21" y="0">mular</tspan></text><rect class="cls-5" x="14.54" y="204.29" width="108.73" height="34.05"/><text class="cls-14" transform="translate(23.18 226.99) scale(0.96 1)">Link til a<tspan class="cls-19" x="51.55" y="0">f</tspan><tspan class="cls-18" x="55.74" y="0">deling</tspan></text><rect class="cls-20" x="259.31" y="337.63" width="53.97" height="2.31" transform="translate(339.94 -258.94) rotate(90)"/></svg>