<svg id="Lag_1" data-name="Lag 1" xmlns="http://www.w3.org/2000/svg" xmlns:xlink="http://www.w3.org/1999/xlink" viewBox="0 0 110.19 274.17"><defs><style>.cls-1{fill:none;stroke:#141f35;stroke-miterlimit:10;}.cls-2{fill:url(#Ikke-navngivet_forløb_4);}.cls-3{fill:url(#Ikke-navngivet_forløb_4-2);}.cls-4{fill:url(#Ikke-navngivet_forløb_4-3);}.cls-5{fill:url(#Ikke-navngivet_forløb_4-4);}.cls-6{fill:#141f35;}.cls-7{font-size:19.89px;}.cls-11,.cls-13,.cls-19,.cls-22,.cls-7{fill:#fff;font-family:MyriadPro-Regular, Myriad Pro;}.cls-8{letter-spacing:-0.03em;}.cls-9{letter-spacing:-0.01em;}.cls-10{letter-spacing:0em;}.cls-11{font-size:14px;}.cls-12{letter-spacing:0.01em;}.cls-13,.cls-19{font-size:15.21px;}.cls-14{letter-spacing:0em;}.cls-15{letter-spacing:0.01em;}.cls-16{letter-spacing:0em;}.cls-17{letter-spacing:0em;}.cls-18{letter-spacing:-0.01em;}.cls-19{letter-spacing:-0.01em;}.cls-20{letter-spacing:0em;}.cls-21{letter-spacing:0.01em;}.cls-22{font-size:18px;}.cls-23{letter-spacing:-0.01em;}</style><linearGradient id="Ikke-navngivet_forløb_4" x1="0.88" y1="1.05" x2="110.19" y2="1.05" gradientUnits="userSpaceOnUse"><stop offset="0" stop-color="#e94e1b"/><stop offset="0.36" stop-color="#ec6412"/><stop offset="0.99" stop-color="#f39200"/></linearGradient><linearGradient id="Ikke-navngivet_forløb_4-2" x1="329.58" y1="337.61" x2="368.29" y2="337.61" gradientTransform="translate(-105.87 -18.05)" xlink:href="#Ikke-navngivet_forløb_4"/><linearGradient id="Ikke-navngivet_forløb_4-3" x1="250.97" y1="338.66" x2="360.29" y2="338.66" gradientTransform="matrix(1, 0, 0, -1, -8.78, 677.31)" xlink:href="#Ikke-navngivet_forløb_4"/><linearGradient id="Ikke-navngivet_forløb_4-4" x1="-72.44" y1="229.17" x2="-33.74" y2="229.17" gradientTransform="matrix(1, 0, 0, -1, 404.6, 549.26)" xlink:href="#Ikke-navngivet_forløb_4"/></defs><title>footer</title><line class="cls-1" x1="55.1" x2="55.1" y2="248.45"/><rect class="cls-2" x="0.88" y="0.26" width="109.32" height="1.57"/><rect class="cls-3" x="223.72" y="318.69" width="38.7" height="1.75" transform="translate(320.44 -223.46) rotate(90)"/><rect class="cls-4" x="242.19" y="337.87" width="109.32" height="1.57" transform="translate(351.51 377.36) rotate(180)"/><rect class="cls-5" x="332.16" y="319.21" width="38.7" height="1.75" transform="translate(-210.77 371.65) rotate(-90)"/><rect class="cls-6" x="1.75" y="1.83" width="106.69" height="36.09"/><text class="cls-7" transform="translate(28.26 24.68) scale(1.02 1)"><tspan class="cls-8">F</tspan><tspan x="9.07" y="0">oo</tspan><tspan class="cls-9" x="30.92" y="0">t</tspan><tspan class="cls-10" x="37.38" y="0">er</tspan></text><rect class="cls-6" x="5.13" y="52.21" width="99.93" height="29.33"/><rect class="cls-6" x="5.13" y="91.32" width="99.93" height="29.33"/><rect class="cls-6" x="5.13" y="130.43" width="99.93" height="29.33"/><rect class="cls-6" x="5.13" y="169.54" width="99.93" height="29.33"/><rect class="cls-6" x="5.13" y="208.65" width="99.93" height="29.33"/><text class="cls-11" transform="translate(15.13 71.76) scale(1.02 1)"><tspan class="cls-12">C</tspan><tspan x="8.29" y="0">VR-nummer</tspan></text><text class="cls-13" transform="translate(15.13 110.87) scale(1.02 1)"><tspan class="cls-14">G</tspan><tspan x="9.9" y="0">oogle </tspan><tspan class="cls-15" x="49.54" y="0">M</tspan><tspan class="cls-16" x="61.86" y="0">aps</tspan></text><text class="cls-13" transform="translate(16.96 149.98) scale(1.02 1)">Ko<tspan class="cls-17" x="16.59" y="0">n</tspan><tspan x="24.97" y="0">taktin</tspan><tspan class="cls-18" x="61.51" y="0">f</tspan><tspan x="65.75" y="0">o</tspan></text><text class="cls-19" transform="translate(23.07 189.09) scale(1.02 1)">A<tspan class="cls-18" x="9.2" y="0">f</tspan><tspan class="cls-20" x="13.45" y="0">delinger</tspan></text><text class="cls-13" transform="translate(28.15 227.62) scale(1.02 1)">Linked<tspan class="cls-21" x="42.51" y="0">I</tspan><tspan x="46.3" y="0">n</tspan></text><rect class="cls-6" x="4.7" y="247.76" width="99.93" height="26.41"/><text class="cls-22" transform="translate(34.98 265.52) scale(0.95 1)"><tspan class="cls-23">C</tspan><tspan x="10.31" y="0">ases</tspan></text></svg>