<svg id="Lag_1" data-name="Lag 1" xmlns="http://www.w3.org/2000/svg" xmlns:xlink="http://www.w3.org/1999/xlink" viewBox="0 0 145.02 280.16"><defs><style>.cls-1{fill:none;stroke:#141f35;stroke-miterlimit:10;}.cls-2{fill:url(#Ikke-navngivet_forløb_4);}.cls-3{fill:url(#Ikke-navngivet_forløb_4-2);}.cls-4{fill:url(#Ikke-navngivet_forløb_4-3);}.cls-5{fill:url(#Ikke-navngivet_forløb_4-4);}.cls-6{fill:#141f35;}.cls-7{font-size:27.74px;}.cls-11,.cls-7,.cls-8{fill:#fff;font-family:MyriadPro-Regular, Myriad Pro;}.cls-8{font-size:17.65px;}.cls-9{letter-spacing:0em;}.cls-10{letter-spacing:-0.01em;}.cls-11{font-size:17px;}.cls-12{letter-spacing:0em;}.cls-13{letter-spacing:0.01em;}.cls-14{letter-spacing:0em;}.cls-15{letter-spacing:0em;}.cls-16{letter-spacing:0.02em;}.cls-17{letter-spacing:-0.01em;}.cls-18{letter-spacing:-0.01em;}.cls-19{letter-spacing:0.01em;}.cls-20{letter-spacing:0em;}.cls-21{letter-spacing:-0.01em;}</style><linearGradient id="Ikke-navngivet_forløb_4" x1="1.15" y1="1.09" x2="145.02" y2="1.09" gradientUnits="userSpaceOnUse"><stop offset="0" stop-color="#e94e1b"/><stop offset="0.36" stop-color="#ec6412"/><stop offset="0.99" stop-color="#f39200"/></linearGradient><linearGradient id="Ikke-navngivet_forløb_4-2" x1="319.89" y1="294.39" x2="373.86" y2="294.39" gradientTransform="translate(-60.58 23.12)" xlink:href="#Ikke-navngivet_forløb_4"/><linearGradient id="Ikke-navngivet_forløb_4-3" x1="173.48" y1="344.13" x2="317.34" y2="344.13" gradientTransform="matrix(1, 0, 0, -1, 111.66, 688.25)" xlink:href="#Ikke-navngivet_forløb_4"/><linearGradient id="Ikke-navngivet_forløb_4-4" x1="-78.22" y1="151.68" x2="-24.25" y2="151.68" gradientTransform="matrix(1, 0, 0, -1, 480.24, 469.91)" xlink:href="#Ikke-navngivet_forløb_4"/></defs><title>Om os</title><line class="cls-1" x1="68.91" x2="68.91" y2="280.16"/><rect class="cls-2" x="1.15" width="143.86" height="2.19"/><rect class="cls-3" x="259.31" y="316.35" width="53.97" height="2.31" transform="translate(318.66 -259.31) rotate(90)"/><rect class="cls-4" x="285.14" y="343.03" width="143.86" height="2.19" transform="translate(429.01 397.73) rotate(180)"/><rect class="cls-5" x="402.02" y="317.08" width="53.97" height="2.31" transform="translate(-174.37 456.72) rotate(-90)"/><rect class="cls-6" x="2.31" y="2.19" width="140.4" height="50.32"/><text class="cls-7" transform="translate(36.29 34.05) scale(1.02 1)">Om os</text><rect class="cls-6" x="14.54" y="246.11" width="108.73" height="34.05"/><rect class="cls-6" x="14.54" y="66.18" width="108.73" height="35.84"/><rect class="cls-6" x="14.54" y="111.58" width="108.73" height="34.05"/><text class="cls-8" transform="translate(27.71 268.81) scale(0.96 1)">Ko<tspan class="cls-9" x="19.26" y="0">n</tspan><tspan x="28.99" y="0">taktin</tspan><tspan class="cls-10" x="71.39" y="0">f</tspan><tspan x="76.32" y="0">o</tspan></text><text class="cls-11" transform="translate(25.36 87) scale(0.96 1)">Om <tspan class="cls-12" x="29.5" y="0">R</tspan><tspan x="38.71" y="0">epenso</tspan></text><text class="cls-8" transform="translate(43.99 134.27) scale(0.96 1)"><tspan class="cls-13">H</tspan><tspan x="11.69" y="0">ie</tspan><tspan class="cls-14" x="24.66" y="0">r</tspan><tspan x="30.35" y="0">a</tspan><tspan class="cls-15" x="38.86" y="0">r</tspan><tspan class="cls-16" x="44.7" y="0">k</tspan><tspan x="53.28" y="0">i</tspan></text><rect class="cls-6" x="14.54" y="155.19" width="108.73" height="34.05"/><rect class="cls-6" x="14.54" y="200.58" width="108.73" height="34.05"/><text class="cls-8" transform="translate(32.98 177.89) scale(0.96 1)"><tspan class="cls-17">A</tspan><tspan class="cls-18" x="10.68" y="0">f</tspan><tspan x="15.61" y="0">delinger</tspan></text><text class="cls-8" transform="translate(18.54 223.28) scale(0.96 1)"><tspan class="cls-19">M</tspan><tspan x="14.3" y="0">eda</tspan><tspan class="cls-20" x="41.61" y="0">r</tspan><tspan x="47.46" y="0">bejde</tspan><tspan class="cls-21" x="89.44" y="0">r</tspan><tspan x="95.03" y="0">e</tspan></text></svg>