<svg id="Lag_1" data-name="Lag 1" xmlns="http://www.w3.org/2000/svg" xmlns:xlink="http://www.w3.org/1999/xlink" viewBox="0 0 145.02 192.94"><defs><style>.cls-1{fill:none;stroke:#141f35;stroke-miterlimit:10;}.cls-2{fill:#141f35;}.cls-3{fill:url(#Ikke-navngivet_forløb_4);}.cls-4{fill:url(#Ikke-navngivet_forløb_4-2);}.cls-5{fill:url(#Ikke-navngivet_forløb_4-3);}.cls-6{font-size:27.74px;}.cls-11,.cls-13,.cls-6{fill:#fff;font-family:MyriadPro-Regular, Myriad Pro;}.cls-7{letter-spacing:0.01em;}.cls-8{letter-spacing:0em;}.cls-9{letter-spacing:0.02em;}.cls-10{letter-spacing:-0.01em;}.cls-11{font-size:17.65px;}.cls-12{letter-spacing:-0.08em;}.cls-13{font-size:16px;}.cls-14{letter-spacing:-0.03em;}.cls-15{letter-spacing:0.02em;}.cls-16{letter-spacing:-0.03em;}.cls-17{letter-spacing:0em;}.cls-18{letter-spacing:0em;}.cls-19{letter-spacing:-0.01em;}.cls-20{fill:url(#Ikke-navngivet_forløb_4-4);}</style><linearGradient id="Ikke-navngivet_forløb_4" x1="353.9" y1="354.54" x2="407.87" y2="354.54" gradientTransform="translate(-154.74 -3.02)" gradientUnits="userSpaceOnUse"><stop offset="0" stop-color="#e94e1b"/><stop offset="0.36" stop-color="#ec6412"/><stop offset="0.99" stop-color="#f39200"/></linearGradient><linearGradient id="Ikke-navngivet_forløb_4-2" x1="233.63" y1="378.13" x2="377.49" y2="378.13" gradientTransform="matrix(1, 0, 0, -1, -8.64, 756.27)" xlink:href="#Ikke-navngivet_forløb_4"/><linearGradient id="Ikke-navngivet_forløb_4-3" x1="-112.23" y1="211.83" x2="-58.26" y2="211.83" gradientTransform="matrix(1, 0, 0, -1, 454.1, 564.07)" xlink:href="#Ikke-navngivet_forløb_4"/><linearGradient id="Ikke-navngivet_forløb_4-4" x1="0.58" y1="1.09" x2="144.44" y2="1.09" gradientTransform="matrix(1, 0, 0, 1, 0, 0)" xlink:href="#Ikke-navngivet_forløb_4"/></defs><title>services</title><line class="cls-1" x1="68.91" y1="13.47" x2="68.91" y2="192.94"/><rect class="cls-2" x="14.54" y="68.1" width="108.73" height="34.05"/><rect class="cls-3" x="199.16" y="350.36" width="53.97" height="2.31" transform="translate(352.67 -199.16) rotate(90)"/><rect class="cls-4" x="224.99" y="377.04" width="143.86" height="2.19" transform="translate(368.86 431.74) rotate(180)"/><rect class="cls-5" x="341.87" y="351.09" width="53.97" height="2.31" transform="translate(-208.38 396.57) rotate(-90)"/><rect class="cls-2" x="2.31" y="2.19" width="140.4" height="50.32"/><text class="cls-6" transform="translate(25.42 34.05) scale(0.96 1)"><tspan class="cls-7">S</tspan><tspan class="cls-8" x="13.84" y="0">e</tspan><tspan class="cls-9" x="27.74" y="0">r</tspan><tspan x="37.51" y="0">vi</tspan><tspan class="cls-10" x="57.34" y="0">c</tspan><tspan class="cls-8" x="69.61" y="0">es</tspan></text><rect class="cls-2" x="14.54" y="113.49" width="108.73" height="34.05"/><rect class="cls-2" x="14.54" y="158.89" width="108.73" height="34.05"/><text class="cls-11" transform="translate(42.75 90.8) scale(0.96 1)"><tspan class="cls-12">Y</tspan><tspan x="8.21" y="0">delser</tspan></text><text class="cls-13" transform="translate(19.91 136.19) scale(0.96 1)"><tspan class="cls-14">P</tspan><tspan x="8.1" y="0">a</tspan><tspan class="cls-15" x="15.81" y="0">k</tspan><tspan x="23.58" y="0">keløsninger</tspan></text><text class="cls-11" transform="translate(35.73 181.59) scale(0.96 1)"><tspan class="cls-16">V</tspan><tspan class="cls-17" x="9.27" y="0">æ</tspan><tspan class="cls-18" x="22.92" y="0">r</tspan><tspan x="28.76" y="0">k</tspan><tspan class="cls-19" x="37.04" y="0">t</tspan><tspan x="42.78" y="0">øjer</tspan></text><rect class="cls-20" x="0.58" width="143.86" height="2.19"/></svg>